<?xml version="1.0" encoding="UTF-8"?>
<svg version="1.1" xmlns="http://www.w3.org/2000/svg" width="1024" height="1024">
    <path
        d="M0 0 C337.92 0 675.84 0 1024 0 C1024 337.92 1024 675.84 1024 1024 C686.08 1024 348.16 1024 0 1024 C0 686.08 0 348.16 0 0 Z "
        fill="#FAFAFB" transform="translate(0,0)" />
    <path
        d="M0 0 C4.54575482 1.51525161 6.2929996 4.61825639 8.42871094 8.79223633 C9.07501465 10.29693481 9.07501465 10.29693481 9.734375 11.83203125 C10.46527344 13.51232422 10.46527344 13.51232422 11.2109375 15.2265625 C11.71882813 16.40992188 12.22671875 17.59328125 12.75 18.8125 C13.82290476 21.26923028 14.90329473 23.72263936 15.984375 26.17578125 C16.50451172 27.35736816 17.02464844 28.53895508 17.56054688 29.75634766 C25.08325109 46.70795013 34.88771664 61.95158105 45.26757812 77.27954102 C50.15474531 84.58963348 54.48100589 92.23924868 58.79980469 99.89453125 C59.58717772 101.27579752 60.38951308 102.64866366 61.20800781 104.01171875 C64 108.68873464 64 108.68873464 64 112 C65.51013672 111.7834375 65.51013672 111.7834375 67.05078125 111.5625 C82.9507691 109.41111125 101.49913917 107.52938175 116.89453125 113.03515625 C120.90276923 114.30178138 124.01290599 114.99860323 127.91894531 113.03564453 C132.68839819 109.99220391 137.05945269 106.41261534 141.49462891 102.90966797 C174.64041197 77.6449715 214.30537341 60.63517468 252.93359375 45.77734375 C253.89044067 45.40909485 254.8472876 45.04084595 255.83312988 44.66143799 C260.57432017 42.8387957 265.31855594 41.02486468 270.06884766 39.22607422 C293.36222086 30.36270068 315.60023131 20.19254539 336.390625 6.3828125 C345.56890078 0.30666819 345.56890078 0.30666819 351 1 C353.375 2 353.375 2 355 4 C355.62478937 11.27494468 353.86151233 17.85856144 352.0625 24.875 C351.74893555 26.10516846 351.43537109 27.33533691 351.11230469 28.6027832 C339.38421174 73.39137278 318.62111312 115.34695112 289 151 C288.18789063 151.99773437 287.37578125 152.99546875 286.5390625 154.0234375 C274.49096297 168.60912055 261.02763278 182.48039506 246 194 C243.932868 195.68182276 241.87034985 197.3693324 239.8125 199.0625 C238.20833333 200.375 236.60416667 201.6875 235 203 C238.8223823 206.17083986 242.84164105 208.92322313 247 211.625 C257.25201165 218.38535711 266.82292716 225.71002312 275.859375 234.046875 C277.59341258 235.62902608 279.34699382 237.10946881 281.1875 238.5625 C284.07672365 241.06649383 286.49453603 243.68187514 288.9609375 246.59375 C290.46205112 248.3651791 291.9926285 250.11174392 293.5390625 251.84375 C298.73536609 257.71380296 303.40366698 263.76247615 307.625 270.375 C308.05079346 271.02855469 308.47658691 271.68210937 308.9152832 272.35546875 C311.50190247 276.53749817 312.73754644 279.98213779 313 285 C311.51567996 287.69033008 309.95166802 288.01737635 307.06640625 289.0546875 C302.07512794 290.42442603 297.08144845 290.34148932 291.9375 290.3125 C290.88328857 290.30686035 289.82907715 290.3012207 288.74291992 290.29541016 C262.26788621 289.89568246 238.54994003 282.3053052 214 273 C214.2165625 273.95519531 214.433125 274.91039062 214.65625 275.89453125 C218.38557349 292.93402471 218.38557349 292.93402471 217 299 C214.21250063 301.79358561 213.26279328 301.99569191 209.1875 302.0625 C200.10008331 300.71901149 191.09483329 296.15310955 183 292 C186.27098474 306.0808105 194.52669056 316.50866328 204 327 C204.89332031 328.00160156 204.89332031 328.00160156 205.8046875 329.0234375 C218.41935756 342.39122219 235.40365739 351.27020539 251.0078125 360.58984375 C266.40625343 369.81391591 279.98208089 379.6368283 293 392 C293.96679688 392.87011719 293.96679688 392.87011719 294.953125 393.7578125 C303.27115508 401.49280309 309.47182906 411.42980813 314.5625 421.5 C314.89693115 422.15798584 315.2313623 422.81597168 315.57592773 423.49389648 C317.42974912 427.31420243 318.52471662 430.78104612 319 435 C338.91947863 427.33663556 355.3239128 418.78331172 371 404 C371.67675781 403.38769531 372.35351562 402.77539062 373.05078125 402.14453125 C388.59148633 387.53813709 399.42537948 366.38515894 405 346 C405.30421875 344.89785156 405.6084375 343.79570313 405.921875 342.66015625 C415.02005647 307.94115245 405.27519317 276.53414985 393.35644531 244.00610352 C389.60228407 233.74959074 386.15511816 223.72116862 384 213 C383.85336914 212.30374512 383.70673828 211.60749023 383.55566406 210.89013672 C376.17768684 175.03951407 382.05565764 135.80134455 401.83740234 104.73242188 C410.68624688 91.54649142 421.21695177 81.30519351 434 72 C434.76699219 71.43023437 435.53398438 70.86046875 436.32421875 70.2734375 C449.02240781 61.74718488 466.76443231 56.35245466 482 59 C488.241249 61.70325134 491.9837726 65.44759935 495.3125 71.3125 C497.12438569 78.39532588 496.33986135 84.17745779 492.78515625 90.59375 C487.35873553 97.90813767 478.35101046 102.02423199 470.63061523 106.57666016 C449.82986069 118.9518261 437.70092232 134.28001289 428 156 C431.78009972 153.2027262 435.53349141 150.38918894 439.19140625 147.43359375 C446.79558534 141.30659425 454.49976563 135.85584649 463 131 C464.12535156 130.34386719 465.25070312 129.68773437 466.41015625 129.01171875 C476.78753988 123.11856637 487.74887934 118.91713774 499 115 C500.08619629 114.61884033 500.08619629 114.61884033 501.19433594 114.22998047 C523.6971734 106.50904983 554.57023254 100.0214522 577.1953125 110.4765625 C584.4599397 114.42252992 588.38796494 119.11924464 591 127 C591.88933616 133.19179328 591.77384565 138.81096224 588 144 C582.02313977 150.63617814 575.6878904 153.67716578 566.71801758 154.1862793 C563.03736809 154.18755615 559.36659565 154.10543164 555.6875 154 C519.7830153 153.43658135 484.21226464 162.88926994 457.7578125 188.2734375 C446.69111496 199.21473337 437.04642742 211.57574842 436.5 227.75 C436.81992712 237.27557194 439.60214024 245.98216308 442.68359375 254.9140625 C457.6848324 298.40747736 455.61396751 342.67608652 435.45703125 384.3671875 C427.2964026 400.67384357 417.18024368 414.49562295 405 428 C404.32453125 428.74894531 403.6490625 429.49789063 402.953125 430.26953125 C385.69081603 448.38020156 385.69081603 448.38020156 377.9152832 449.22705078 C377.13499756 449.21657715 376.35471191 449.20610352 375.55078125 449.1953125 C374.70322266 449.18886719 373.85566406 449.18242188 372.98242188 449.17578125 C372.10134766 449.15902344 371.22027344 449.14226562 370.3125 449.125 C369.41982422 449.11597656 368.52714844 449.10695313 367.60742188 449.09765625 C365.40467686 449.07409748 363.20247412 449.04120329 361 449 C364.55536532 446.07320756 368.2257963 443.48103963 372.0625 440.9375 C378.36302678 436.64755088 383.99280874 431.7866619 389.46435547 426.484375 C391.04748681 424.9540986 392.65032412 423.44630552 394.25390625 421.9375 C419.83597013 397.51516642 433.43013389 365.3876394 439.62402344 331.06616211 C439.92291719 329.42360505 440.25297363 327.78672517 440.59375 326.15234375 C443.96067532 300.02629826 437.32441867 276.22566908 428.89013672 251.78369141 C423.53317004 236.23518631 422.70222373 221.00381975 430 206 C434.85025035 197.01841473 440.89158953 189.32060183 448 182 C448.5259375 181.4121875 449.051875 180.824375 449.59375 180.21875 C470.8563856 157.22038904 505.42838249 144.15655825 536.22070312 142.09814453 C539.70602509 141.97506833 543.18537393 141.99215534 546.671875 142.02734375 C547.35742966 142.03317978 548.04298431 142.03901581 548.74931335 142.04502869 C552.21399266 142.07910502 555.67475347 142.14125361 559.13793945 142.2487793 C566.55659593 142.38494833 571.81562235 142.31754067 578 138 C579.61032756 133.81314834 579.24600485 130.88016171 577.625 126.8125 C574.79709656 122.05467328 571.23574915 120.46621093 566 119 C561.25709166 118.4891645 556.5776401 118.53122718 551.8125 118.625 C550.58724609 118.62628906 549.36199219 118.62757813 548.09960938 118.62890625 C520.69268463 118.88896141 493.94425606 126.90755655 470 140 C468.93265625 140.57621094 467.8653125 141.15242187 466.765625 141.74609375 C446.28039747 153.23586515 429.31738717 169.76790735 416 189 C414 188 414 188 413.38671875 186.33984375 C409.90305986 165.26194807 417.73402846 145.34176973 429 128 C431.82078229 124.15662237 434.81570992 120.54626976 438 117 C438.61230469 116.30519531 439.22460938 115.61039062 439.85546875 114.89453125 C448.67802892 105.47000536 460.0235821 98.70311528 471.22631836 92.48681641 C476.58413373 89.46133119 480.5407506 86.1888741 484 81 C484.34268069 77.77880153 484.38547305 75.73626686 482.87109375 72.84375 C480.2111738 70.22270154 478.44171326 70.43328572 474.75 70.4375 C455.52209936 71.0315649 437.52611686 81.8021606 424.5625 95.5 C411.06201554 111.10321479 402.34431402 128.16808773 397 148 C396.80245117 148.69480469 396.60490234 149.38960937 396.40136719 150.10546875 C390.87618615 169.96356624 390.9189712 192.03666791 396 212 C396.2151123 212.87527344 396.43022461 213.75054687 396.65185547 214.65234375 C400.21929283 228.93178075 404.88736978 242.71123458 410.09179688 256.4597168 C424.47401656 294.46654303 425.4443323 333.6680218 408.97583008 371.29833984 C393.87167391 404.07928291 367.87059846 425.53874857 336 441 C333.70533144 442.11911368 331.41451986 443.24532074 329.125 444.375 C327.70574219 445.06722656 327.70574219 445.06722656 326.2578125 445.7734375 C323.88858809 446.9222149 323.88858809 446.9222149 322 449 C320.14218366 449.24839699 320.14218366 449.24839699 317.83394432 449.24609566 C316.95562993 449.25007775 316.07731555 449.25405985 315.17238557 449.25816262 C314.20158323 449.25233693 313.23078089 449.24651125 312.2305603 449.24050903 C311.20387981 449.24221788 310.17719932 449.24392673 309.1194073 449.24568737 C305.6568465 449.24899863 302.19447673 449.23795167 298.73193359 449.22705078 C296.25876368 449.22648702 293.78559343 449.22680254 291.31242371 449.22793579 C285.97637826 449.22839218 280.64039302 449.22269565 275.30436325 449.21146011 C267.58931088 449.19522586 259.87428217 449.18999924 252.15921457 449.18748413 C239.64291351 449.18310376 227.12663848 449.1697854 214.61035156 449.15087891 C202.44987112 449.13252894 190.28939774 449.11836812 178.12890625 449.10986328 C177.00509059 449.10907511 177.00509059 449.10907511 175.85857157 449.10827102 C172.100111 449.105661 168.34165038 449.10313357 164.58318973 449.10064721 C133.38877422 449.07990406 102.19439106 449.04452088 71 449 C70.85911107 448.25493195 70.71822214 447.50986389 70.57306385 446.74221802 C69.92649051 443.33029467 69.27638362 439.91905358 68.6262207 436.5078125 C68.29388805 434.74981323 68.29388805 434.74981323 67.95484161 432.95629883 C66.56761965 425.69424804 64.95682127 418.57263095 63.06958008 411.42529297 C54.73659904 379.0666647 59.64728763 345.79148866 63 313 C61.87899902 313.03697998 61.87899902 313.03697998 60.73535156 313.07470703 C53.74052546 313.20603936 47.51602103 312.61331094 40.75 310.875 C39.84958984 310.65054199 38.94917969 310.42608398 38.02148438 310.19482422 C18.5807238 305.18307605 -2.46089558 297.5822873 -13.5625 279.75 C-18.11053456 271.70659171 -18.348318 264.43328502 -18.47851562 255.40625 C-18.64205572 249.63049265 -19.48313564 244.74417921 -21.28686523 239.2578125 C-27.30743668 220.19644834 -22.312303 197.88694568 -13.8203125 180.4453125 C-12.37202749 176.12804385 -13.75314134 173.52847785 -15.63671875 169.49609375 C-16.12736816 168.52530884 -16.12736816 168.52530884 -16.62792969 167.53491211 C-21.76266811 157.37073289 -25.2926261 147.04730687 -28 136 C-28.21172852 135.14744629 -28.42345703 134.29489258 -28.64160156 133.41650391 C-34.66446312 107.85036335 -35.40389717 76.34345493 -28 51 C-27.79101074 50.25314941 -27.58202148 49.50629883 -27.36669922 48.73681641 C-13.43145615 0 -13.43145615 0 0 0 Z "
        fill="#C798E4" transform="translate(189,175)" />
    <path
        d="M0 0 C4.54575482 1.51525161 6.2929996 4.61825639 8.42871094 8.79223633 C9.07501465 10.29693481 9.07501465 10.29693481 9.734375 11.83203125 C10.46527344 13.51232422 10.46527344 13.51232422 11.2109375 15.2265625 C11.71882813 16.40992188 12.22671875 17.59328125 12.75 18.8125 C13.82290476 21.26923028 14.90329473 23.72263936 15.984375 26.17578125 C16.50451172 27.35736816 17.02464844 28.53895508 17.56054688 29.75634766 C25.08325109 46.70795013 34.88771664 61.95158105 45.26757812 77.27954102 C50.15474531 84.58963348 54.48100589 92.23924868 58.79980469 99.89453125 C59.58717772 101.27579752 60.38951308 102.64866366 61.20800781 104.01171875 C64 108.68873464 64 108.68873464 64 112 C65.51013672 111.7834375 65.51013672 111.7834375 67.05078125 111.5625 C82.9507691 109.41111125 101.49913917 107.52938175 116.89453125 113.03515625 C120.90276923 114.30178138 124.01290599 114.99860323 127.91894531 113.03564453 C132.68839819 109.99220391 137.05945269 106.41261534 141.49462891 102.90966797 C174.64041197 77.6449715 214.30537341 60.63517468 252.93359375 45.77734375 C253.89044067 45.40909485 254.8472876 45.04084595 255.83312988 44.66143799 C260.57432017 42.8387957 265.31855594 41.02486468 270.06884766 39.22607422 C293.36222086 30.36270068 315.60023131 20.19254539 336.390625 6.3828125 C345.56890078 0.30666819 345.56890078 0.30666819 351 1 C353.375 2 353.375 2 355 4 C355.62478937 11.27494468 353.86151233 17.85856144 352.0625 24.875 C351.74893555 26.10516846 351.43537109 27.33533691 351.11230469 28.6027832 C339.38421174 73.39137278 318.62111312 115.34695112 289 151 C288.18789063 151.99773437 287.37578125 152.99546875 286.5390625 154.0234375 C274.49096297 168.60912055 261.02763278 182.48039506 246 194 C243.932868 195.68182276 241.87034985 197.3693324 239.8125 199.0625 C238.20833333 200.375 236.60416667 201.6875 235 203 C238.8223823 206.17083986 242.84164105 208.92322313 247 211.625 C257.25201165 218.38535711 266.82292716 225.71002312 275.859375 234.046875 C277.59341258 235.62902608 279.34699382 237.10946881 281.1875 238.5625 C284.07672365 241.06649383 286.49453603 243.68187514 288.9609375 246.59375 C290.46205112 248.3651791 291.9926285 250.11174392 293.5390625 251.84375 C298.73536609 257.71380296 303.40366698 263.76247615 307.625 270.375 C308.05079346 271.02855469 308.47658691 271.68210937 308.9152832 272.35546875 C311.50190247 276.53749817 312.73754644 279.98213779 313 285 C311.51567996 287.69033008 309.95166802 288.01737635 307.06640625 289.0546875 C302.07512794 290.42442603 297.08144845 290.34148932 291.9375 290.3125 C290.88328857 290.30686035 289.82907715 290.3012207 288.74291992 290.29541016 C262.26788621 289.89568246 238.54994003 282.3053052 214 273 C214.2165625 273.95519531 214.433125 274.91039062 214.65625 275.89453125 C218.38557349 292.93402471 218.38557349 292.93402471 217 299 C214.21250063 301.79358561 213.26279328 301.99569191 209.1875 302.0625 C200.10008331 300.71901149 191.09483329 296.15310955 183 292 C186.27098474 306.0808105 194.52669056 316.50866328 204 327 C204.89332031 328.00160156 204.89332031 328.00160156 205.8046875 329.0234375 C218.41935756 342.39122219 235.40365739 351.27020539 251.0078125 360.58984375 C266.40625343 369.81391591 279.98208089 379.6368283 293 392 C293.96679688 392.87011719 293.96679688 392.87011719 294.953125 393.7578125 C303.27115508 401.49280309 309.47182906 411.42980813 314.5625 421.5 C314.89693115 422.15798584 315.2313623 422.81597168 315.57592773 423.49389648 C317.42974912 427.31420243 318.52471662 430.78104612 319 435 C338.91947863 427.33663556 355.3239128 418.78331172 371 404 C371.67675781 403.38769531 372.35351562 402.77539062 373.05078125 402.14453125 C388.59148633 387.53813709 399.42537948 366.38515894 405 346 C405.30421875 344.89785156 405.6084375 343.79570313 405.921875 342.66015625 C415.02005647 307.94115245 405.27519317 276.53414985 393.35644531 244.00610352 C389.60228407 233.74959074 386.15511816 223.72116862 384 213 C383.85336914 212.30374512 383.70673828 211.60749023 383.55566406 210.89013672 C376.17768684 175.03951407 382.05565764 135.80134455 401.83740234 104.73242188 C410.68624688 91.54649142 421.21695177 81.30519351 434 72 C434.76699219 71.43023437 435.53398438 70.86046875 436.32421875 70.2734375 C449.02240781 61.74718488 466.76443231 56.35245466 482 59 C488.241249 61.70325134 491.9837726 65.44759935 495.3125 71.3125 C497.12438569 78.39532588 496.33986135 84.17745779 492.78515625 90.59375 C487.35873553 97.90813767 478.35101046 102.02423199 470.63061523 106.57666016 C449.82986069 118.9518261 437.70092232 134.28001289 428 156 C431.78009972 153.2027262 435.53349141 150.38918894 439.19140625 147.43359375 C446.79558534 141.30659425 454.49976563 135.85584649 463 131 C464.12535156 130.34386719 465.25070312 129.68773437 466.41015625 129.01171875 C476.78753988 123.11856637 487.74887934 118.91713774 499 115 C500.08619629 114.61884033 500.08619629 114.61884033 501.19433594 114.22998047 C523.6971734 106.50904983 554.57023254 100.0214522 577.1953125 110.4765625 C584.4599397 114.42252992 588.38796494 119.11924464 591 127 C591.88933616 133.19179328 591.77384565 138.81096224 588 144 C582.02313977 150.63617814 575.6878904 153.67716578 566.71801758 154.1862793 C563.03736809 154.18755615 559.36659565 154.10543164 555.6875 154 C519.7830153 153.43658135 484.21226464 162.88926994 457.7578125 188.2734375 C446.69111496 199.21473337 437.04642742 211.57574842 436.5 227.75 C436.81992712 237.27557194 439.60214024 245.98216308 442.68359375 254.9140625 C457.6848324 298.40747736 455.61396751 342.67608652 435.45703125 384.3671875 C427.2964026 400.67384357 417.18024368 414.49562295 405 428 C404.32453125 428.74894531 403.6490625 429.49789063 402.953125 430.26953125 C385.69081603 448.38020156 385.69081603 448.38020156 377.9152832 449.22705078 C377.13499756 449.21657715 376.35471191 449.20610352 375.55078125 449.1953125 C374.70322266 449.18886719 373.85566406 449.18242188 372.98242188 449.17578125 C372.10134766 449.15902344 371.22027344 449.14226562 370.3125 449.125 C369.41982422 449.11597656 368.52714844 449.10695313 367.60742188 449.09765625 C365.40467686 449.07409748 363.20247412 449.04120329 361 449 C364.55536532 446.07320756 368.2257963 443.48103963 372.0625 440.9375 C378.36302678 436.64755088 383.99280874 431.7866619 389.46435547 426.484375 C391.04748681 424.9540986 392.65032412 423.44630552 394.25390625 421.9375 C419.83597013 397.51516642 433.43013389 365.3876394 439.62402344 331.06616211 C439.92291719 329.42360505 440.25297363 327.78672517 440.59375 326.15234375 C443.96067532 300.02629826 437.32441867 276.22566908 428.89013672 251.78369141 C423.53317004 236.23518631 422.70222373 221.00381975 430 206 C434.85025035 197.01841473 440.89158953 189.32060183 448 182 C448.5259375 181.4121875 449.051875 180.824375 449.59375 180.21875 C470.8563856 157.22038904 505.42838249 144.15655825 536.22070312 142.09814453 C539.70602509 141.97506833 543.18537393 141.99215534 546.671875 142.02734375 C547.35742966 142.03317978 548.04298431 142.03901581 548.74931335 142.04502869 C552.21399266 142.07910502 555.67475347 142.14125361 559.13793945 142.2487793 C566.55659593 142.38494833 571.81562235 142.31754067 578 138 C579.61032756 133.81314834 579.24600485 130.88016171 577.625 126.8125 C574.79709656 122.05467328 571.23574915 120.46621093 566 119 C561.25709166 118.4891645 556.5776401 118.53122718 551.8125 118.625 C550.58724609 118.62628906 549.36199219 118.62757813 548.09960938 118.62890625 C520.69268463 118.88896141 493.94425606 126.90755655 470 140 C468.93265625 140.57621094 467.8653125 141.15242187 466.765625 141.74609375 C446.28039747 153.23586515 429.31738717 169.76790735 416 189 C414 188 414 188 413.38671875 186.33984375 C409.90305986 165.26194807 417.73402846 145.34176973 429 128 C431.82078229 124.15662237 434.81570992 120.54626976 438 117 C438.61230469 116.30519531 439.22460938 115.61039062 439.85546875 114.89453125 C448.67802892 105.47000536 460.0235821 98.70311528 471.22631836 92.48681641 C476.58413373 89.46133119 480.5407506 86.1888741 484 81 C484.34268069 77.77880153 484.38547305 75.73626686 482.87109375 72.84375 C480.2111738 70.22270154 478.44171326 70.43328572 474.75 70.4375 C455.52209936 71.0315649 437.52611686 81.8021606 424.5625 95.5 C411.06201554 111.10321479 402.34431402 128.16808773 397 148 C396.80245117 148.69480469 396.60490234 149.38960937 396.40136719 150.10546875 C390.87618615 169.96356624 390.9189712 192.03666791 396 212 C396.2151123 212.87527344 396.43022461 213.75054687 396.65185547 214.65234375 C400.21929283 228.93178075 404.88736978 242.71123458 410.09179688 256.4597168 C424.47401656 294.46654303 425.4443323 333.6680218 408.97583008 371.29833984 C393.87167391 404.07928291 367.87059846 425.53874857 336 441 C333.70533144 442.11911368 331.41451986 443.24532074 329.125 444.375 C327.70574219 445.06722656 327.70574219 445.06722656 326.2578125 445.7734375 C323.88858809 446.9222149 323.88858809 446.9222149 322 449 C319.1796875 449.1953125 319.1796875 449.1953125 315.875 449.125 C314.77929688 449.10695313 313.68359375 449.08890625 312.5546875 449.0703125 C311.29011719 449.03550781 311.29011719 449.03550781 310 449 C309.8040625 447.9584375 309.608125 446.916875 309.40625 445.84375 C303.71882353 417.75691819 286.19417177 397.91114224 263 382 C255.77989909 377.38019137 248.37405502 373.06491846 240.97509766 368.73974609 C218.19847407 355.42067341 195.93187849 340.47974761 181.25 318 C180.88487305 317.4426416 180.51974609 316.8852832 180.14355469 316.31103516 C174.39406814 307.21251222 172.12954206 298.71333872 170.84179688 288.08398438 C169.89657727 281.8246269 168.24154127 278.27549112 163.71679688 273.80493164 C156.52159254 266.24034893 153 252.22811977 153 242 C153.66 242 154.32 242 155 242 C156.15405273 243.46191406 156.15405273 243.46191406 157.43359375 245.515625 C157.91199707 246.26666504 158.39040039 247.01770508 158.88330078 247.79150391 C159.39618652 248.60280762 159.90907227 249.41411133 160.4375 250.25 C171.70266423 267.5713383 185.72830281 280.97600886 205 289 C204.82871582 288.22922119 204.65743164 287.45844238 204.48095703 286.66430664 C201.98730469 275.44287109 199.49365234 264.22143555 197 253 C200.9035289 253.63388356 204.16706308 254.82308377 207.76953125 256.44140625 C208.89407715 256.93906494 210.01862305 257.43672363 211.17724609 257.94946289 C212.37687988 258.48176514 213.57651367 259.01406738 214.8125 259.5625 C238.3835439 269.87622764 262.00479824 278.27397536 288 278.0625 C289.06089844 278.05798828 290.12179687 278.05347656 291.21484375 278.04882812 C293.80995598 278.03713843 296.40494709 278.02075276 299 278 C277.51100173 249.51891986 253.65143288 227.71741531 222 211 C221.39124023 210.67322266 220.78248047 210.34644531 220.15527344 210.00976562 C206.13223286 202.58801683 190.90822977 197.96848672 175.89477539 192.99633789 C173 192 173 192 171 191 C171.33 190.01 171.66 189.02 172 188 C172.66 188 173.32 188 174 188 C167.74073072 179.66772514 161.31213917 171.37264003 153 165 C154.45361108 154.01934334 165.61136428 144.7580675 173 137 C173.58265625 136.36449219 174.1653125 135.72898437 174.765625 135.07421875 C204.80464879 103.29050419 253.02914281 83.51615845 293.8125 70.875 C294.45322449 70.67628296 295.09394897 70.47756592 295.75408936 70.27282715 C306.38580421 67 306.38580421 67 310 67 C309.27262201 94.50811303 290.95898782 118.56938098 273.49560547 138.29956055 C272.4848493 139.44874709 271.4840656 140.60677027 270.49267578 141.77270508 C265.53600323 147.56593739 260.21045725 152.97568425 254.82226562 158.36303711 C253.26139673 159.92608734 251.70872112 161.49697365 250.15625 163.06835938 C243.76405837 169.49662896 237.1338955 175.38821622 230 181 C228.64386222 182.09422343 227.28831937 183.18918494 225.93359375 184.28515625 C224.76903238 185.21194768 223.60369728 186.13776791 222.4375 187.0625 C221.83615234 187.54654297 221.23480469 188.03058594 220.61523438 188.52929688 C216.23144669 192 216.23144669 192 214 192 C214 192.66 214 193.32 214 194 C219.38100413 196.03197479 219.38100413 196.03197479 225 196 C227.77884144 194.27751634 230.2093624 192.18753813 232.6875 190.0625 C233.39648438 189.47001465 234.10546875 188.8775293 234.8359375 188.26708984 C239.58963716 184.27212048 244.25744068 180.18349667 248.83203125 175.984375 C250.91868794 174.07442617 253.04388954 172.22054653 255.1875 170.375 C261.66006798 164.72125086 267.46892531 158.57006109 273 152 C273.44585449 151.47325684 273.89170898 150.94651367 274.35107422 150.40380859 C289.38770666 132.55612975 302.10192953 113.63944037 313 93 C313.72896484 91.62618164 313.72896484 91.62618164 314.47265625 90.22460938 C326.03464789 68.12450818 333.56919935 44.29568714 339 20 C337.91912109 20.76570313 337.91912109 20.76570313 336.81640625 21.546875 C315.01501964 36.30795789 290.24724556 44.8906594 265.76925659 54.06718445 C216.01194368 72.76027684 170.48983706 95.83878184 128 128 C126.55677912 129.08958824 125.11278354 130.1781512 123.66796875 131.265625 C123.03528076 131.74290039 122.40259277 132.22017578 121.75073242 132.71191406 C117.82560544 135.59979162 115.85482 136.21576978 111 136 C111.51516282 131.56959974 112.62158411 128.74297622 115 125 C98.43325086 121.4386259 80.33140117 121.39103162 64 126 C63.29568848 126.19867676 62.59137695 126.39735352 61.86572266 126.60205078 C44.94049785 131.50020277 31.35073752 138.34848349 19 151 C18.36964844 151.60972656 17.73929688 152.21945312 17.08984375 152.84765625 C8.30280203 161.96706835 1.91260695 174.34958063 -3.25 185.8125 C-3.69956055 186.78896484 -3.69956055 186.78896484 -4.15820312 187.78515625 C-5.78478645 191.58984256 -6.36824304 194.0578344 -5 198 C-4.1557424 199.82908952 -4.1557424 199.82908952 -3.125 201.5625 C4.7590347 216.9277355 2.43770502 232.03490179 -2.28515625 247.86987305 C-2.96639665 249.89986707 -3.76089057 251.81271247 -4.64453125 253.76171875 C-6.99296716 259.37224718 -6.78913397 265.1858244 -5.0625 271 C0.57698019 283.68245093 12.83656351 290.07326955 25.17626953 294.84082031 C48.31596154 303.06615459 74.30342346 302.95741694 98 297 C99.58211573 296.93451508 101.16670081 296.91421619 102.75 296.9375 C103.54921875 296.94652344 104.3484375 296.95554687 105.171875 296.96484375 C106.07679688 296.98224609 106.07679688 296.98224609 107 297 C105.56506994 301.30479018 102.99092901 302.23113305 99.16015625 304.44140625 C91.22385195 308.3556033 82.78649404 310.95103473 74 312 C74.02320313 312.64839844 74.04640625 313.29679687 74.0703125 313.96484375 C74.34324267 328.80054776 72.93454022 343.75592042 70.875 358.4375 C67.77421551 381.93947768 71.23038487 404.2021561 85.06640625 423.94921875 C90.48942511 430.90504079 95.95313635 435.23438428 103 441 C103 429.78 103 418.56 103 407 C103.99 407 104.98 407 106 407 C108.99716212 412.60533086 111.06295315 417.91194053 112.625 424.0625 C112.82867187 424.80693359 113.03234375 425.55136719 113.2421875 426.31835938 C115.21627849 433.90468983 115.94124839 441.05936292 117 449 C101.82 449 86.64 449 71 449 C68.9375 437.9375 68.9375 437.9375 68.22753906 434.11694336 C67.03637489 427.87676563 65.71258509 421.71447405 64.109375 415.56640625 C55.28631155 381.3408479 59.44341961 347.78543716 63 313 C61.87899902 313.03697998 61.87899902 313.03697998 60.73535156 313.07470703 C53.74052546 313.20603936 47.51602103 312.61331094 40.75 310.875 C39.84958984 310.65054199 38.94917969 310.42608398 38.02148438 310.19482422 C18.5807238 305.18307605 -2.46089558 297.5822873 -13.5625 279.75 C-18.11053456 271.70659171 -18.348318 264.43328502 -18.47851562 255.40625 C-18.64205572 249.63049265 -19.48313564 244.74417921 -21.28686523 239.2578125 C-27.30743668 220.19644834 -22.312303 197.88694568 -13.8203125 180.4453125 C-12.37202749 176.12804385 -13.75314134 173.52847785 -15.63671875 169.49609375 C-16.12736816 168.52530884 -16.12736816 168.52530884 -16.62792969 167.53491211 C-21.76266811 157.37073289 -25.2926261 147.04730687 -28 136 C-28.21172852 135.14744629 -28.42345703 134.29489258 -28.64160156 133.41650391 C-34.66446312 107.85036335 -35.40389717 76.34345493 -28 51 C-27.79101074 50.25314941 -27.58202148 49.50629883 -27.36669922 48.73681641 C-13.43145615 0 -13.43145615 0 0 0 Z "
        fill="#3E2163" transform="translate(189,175)" />
    <path
        d="M0 0 C2.77090805 2.45753154 4.25791592 5.1260132 6 8.375 C10.17627631 15.6746355 15.37879784 21.77382541 21 28 C21.58394531 28.65613281 22.16789062 29.31226563 22.76953125 29.98828125 C35.99861603 44.02115852 53.58054624 54.15951674 70.21630859 63.5300293 C81.82092609 70.10245304 92.83183278 77.33569617 103 86 C103.81855469 86.68449219 104.63710938 87.36898437 105.48046875 88.07421875 C120.24728982 100.82634175 133.63970524 118.1683367 135.54321289 138.19433594 C135.62978653 139.09440369 135.71636017 139.99447144 135.80555725 140.92181396 C135.86972336 141.60761536 135.93388947 142.29341675 136 143 C110.85319785 143.02332597 85.70639731 143.04097769 60.55958652 143.05181217 C48.88436586 143.05697577 37.20915191 143.06401969 25.53393555 143.07543945 C15.36177327 143.08538434 5.18961585 143.09185296 -4.98255116 143.09408849 C-10.3721925 143.09539594 -15.76181994 143.09848388 -21.15145683 143.10573006 C-26.21811434 143.11248719 -31.28475214 143.11461759 -36.35141373 143.11310768 C-38.21672358 143.11338415 -40.08203404 143.11539108 -41.94734001 143.11920547 C-44.48249108 143.12413794 -47.01756651 143.12299996 -49.55271912 143.12025452 C-50.3007593 143.12316736 -51.04879948 143.1260802 -51.81950754 143.12908131 C-56.88587879 143.11412121 -56.88587879 143.11412121 -58 142 C-58.31492607 140.00830539 -58.62362097 138.01542076 -58.90039062 136.01806641 C-59.95785094 128.40169374 -61.32618894 121.00615093 -63.5 113.625 C-63.70141602 112.93083984 -63.90283203 112.23667969 -64.11035156 111.52148438 C-65.2929318 107.66813304 -66.69533501 104.31615684 -69 101 C-69.33 101 -69.66 101 -70 101 C-70 112.55 -70 124.1 -70 136 C-88.08220535 122.43834599 -101.38728073 105.90317233 -104.75 82.8125 C-105.11048307 78.11742783 -105.13343176 73.39470004 -105.1875 68.6875 C-105.20071289 67.89770752 -105.21392578 67.10791504 -105.22753906 66.29418945 C-105.22850586 65.54097412 -105.22947266 64.78775879 -105.23046875 64.01171875 C-105.23663208 62.99791138 -105.23663208 62.99791138 -105.24291992 61.96362305 C-104.95627764 59.64657391 -104.13914251 58.02178749 -103 56 C-102.16976318 56.02356567 -102.16976318 56.02356567 -101.32275391 56.04760742 C-86.85272822 56.57754966 -86.85272822 56.57754966 -73 53 C-71.91332031 52.60941406 -70.82664062 52.21882812 -69.70703125 51.81640625 C-48.65712974 43.98646396 -30.14827472 31.53940535 -14 16 C-13.5265918 15.54705566 -13.05318359 15.09411133 -12.56542969 14.62744141 C-5.50320225 7.95353289 -5.50320225 7.95353289 0 0 Z "
        fill="#C698E3" transform="translate(363,481)" />
    <path
        d="M0 0 C4.9432212 3.30755216 8.68374757 7.2165104 10.19921875 13.140625 C11.26817744 20.39220963 9.56006355 26.26254974 5.19921875 32.140625 C-0.79707611 37.71083998 -8.1533944 41.5797575 -15.17016602 45.71728516 C-35.97092056 58.0924511 -48.09985893 73.42063789 -57.80078125 95.140625 C-54.02068153 92.3433512 -50.26728984 89.52981394 -46.609375 86.57421875 C-39.00519591 80.44721925 -31.30101562 74.99647149 -22.80078125 70.140625 C-21.67542969 69.48449219 -20.55007813 68.82835937 -19.390625 68.15234375 C-9.01324137 62.25919137 1.94809809 58.05776274 13.19921875 54.140625 C14.28541504 53.75946533 14.28541504 53.75946533 15.39355469 53.37060547 C37.89639215 45.64967483 68.76945129 39.1620772 91.39453125 49.6171875 C98.65915845 53.56315492 102.58718369 58.25986964 105.19921875 66.140625 C106.08855491 72.33241828 105.9730644 77.95158724 102.19921875 83.140625 C96.22235852 89.77680314 89.88710915 92.81779078 80.91723633 93.3269043 C77.23658684 93.32818115 73.5658144 93.24605664 69.88671875 93.140625 C33.98223405 92.57720635 -1.58851661 102.02989494 -28.04296875 127.4140625 C-39.10966629 138.35535837 -48.75435383 150.71637342 -49.30078125 166.890625 C-48.98085413 176.41619694 -46.19864101 185.12278808 -43.1171875 194.0546875 C-28.11594885 237.54810236 -30.18681374 281.81671152 -50.34375 323.5078125 C-58.50437865 339.81446857 -68.62053757 353.63624795 -80.80078125 367.140625 C-81.47625 367.88957031 -82.15171875 368.63851563 -82.84765625 369.41015625 C-100.10996522 387.52082656 -100.10996522 387.52082656 -107.88549805 388.36767578 C-108.66578369 388.35720215 -109.44606934 388.34672852 -110.25 388.3359375 C-111.09755859 388.32949219 -111.94511719 388.32304688 -112.81835938 388.31640625 C-113.69943359 388.29964844 -114.58050781 388.28289062 -115.48828125 388.265625 C-116.38095703 388.25660156 -117.27363281 388.24757813 -118.19335938 388.23828125 C-120.39610439 388.21472248 -122.59830713 388.18182829 -124.80078125 388.140625 C-121.24541593 385.21383256 -117.57498495 382.62166463 -113.73828125 380.078125 C-107.43775447 375.78817588 -101.80797251 370.9272869 -96.33642578 365.625 C-94.75329444 364.0947236 -93.15045713 362.58693052 -91.546875 361.078125 C-65.96481112 336.65579142 -52.37064736 304.5282644 -46.17675781 270.20678711 C-45.87786406 268.56423005 -45.54780762 266.92735017 -45.20703125 265.29296875 C-41.84010593 239.16692326 -48.47636258 215.36629408 -56.91064453 190.92431641 C-62.26761121 175.37581131 -63.09855752 160.14444475 -55.80078125 145.140625 C-50.9505309 136.15903973 -44.90919172 128.46122683 -37.80078125 121.140625 C-37.27484375 120.5528125 -36.74890625 119.965 -36.20703125 119.359375 C-14.94439565 96.36101404 19.62760124 83.29718325 50.41992188 81.23876953 C53.90524384 81.11569333 57.38459268 81.13278034 60.87109375 81.16796875 C61.55664841 81.17380478 62.24220306 81.17964081 62.9485321 81.18565369 C66.41321141 81.21973002 69.87397222 81.28187861 73.3371582 81.3894043 C80.75581468 81.52557333 86.0148411 81.45816567 92.19921875 77.140625 C93.80954631 72.95377334 93.4452236 70.02078671 91.82421875 65.953125 C88.99631531 61.19529828 85.4349679 59.60683593 80.19921875 58.140625 C75.45631041 57.6297895 70.77685885 57.67185218 66.01171875 57.765625 C64.78646484 57.76691406 63.56121094 57.76820313 62.29882812 57.76953125 C34.89190338 58.02958641 8.14347481 66.04818155 -15.80078125 79.140625 C-16.868125 79.71683594 -17.93546875 80.29304688 -19.03515625 80.88671875 C-39.52038378 92.37649015 -56.48339408 108.90853235 -69.80078125 128.140625 C-71.80078125 127.140625 -71.80078125 127.140625 -72.4140625 125.48046875 C-75.89772139 104.40257307 -68.06675279 84.48239473 -56.80078125 67.140625 C-53.97999896 63.29724737 -50.98507133 59.68689476 -47.80078125 56.140625 C-47.18847656 55.44582031 -46.57617188 54.75101562 -45.9453125 54.03515625 C-37.12275233 44.61063036 -25.77719915 37.84374028 -14.57446289 31.62744141 C-9.21664752 28.60195619 -5.26003065 25.3294991 -1.80078125 20.140625 C-1.45810056 16.91942653 -1.4153082 14.87689186 -2.9296875 11.984375 C-5.58960745 9.36332654 -7.35906799 9.57391072 -11.05078125 9.578125 C-30.27868189 10.1721899 -48.27466439 20.9427856 -61.23828125 34.640625 C-74.73876571 50.24383979 -83.45646723 67.30871273 -88.80078125 87.140625 C-88.99833008 87.83542969 -89.19587891 88.53023438 -89.39941406 89.24609375 C-94.9245951 109.10419124 -94.88181005 131.17729291 -89.80078125 151.140625 C-89.47811279 152.45353516 -89.47811279 152.45353516 -89.14892578 153.79296875 C-85.58148842 168.07240575 -80.91341147 181.85185958 -75.70898438 195.6003418 C-61.32676469 233.60716803 -60.35644895 272.8086468 -76.82495117 310.43896484 C-91.92910734 343.21990791 -117.93018279 364.67937357 -149.80078125 380.140625 C-152.09544981 381.25973868 -154.38626139 382.38594574 -156.67578125 383.515625 C-158.09503906 384.20785156 -158.09503906 384.20785156 -159.54296875 384.9140625 C-161.91219316 386.0628399 -161.91219316 386.0628399 -163.80078125 388.140625 C-166.62109375 388.3359375 -166.62109375 388.3359375 -169.92578125 388.265625 C-171.02148438 388.24757813 -172.1171875 388.22953125 -173.24609375 388.2109375 C-174.51066406 388.17613281 -174.51066406 388.17613281 -175.80078125 388.140625 C-175.99671875 387.0990625 -176.19265625 386.0575 -176.39453125 384.984375 C-182.08195772 356.89754319 -199.60660948 337.05176724 -222.80078125 321.140625 C-230.02088216 316.52081637 -237.42672623 312.20554346 -244.82568359 307.88037109 C-267.60230718 294.56129841 -289.86890276 279.62037261 -304.55078125 257.140625 C-304.9159082 256.5832666 -305.28103516 256.0259082 -305.65722656 255.45166016 C-311.40671311 246.35313722 -313.67123919 237.85396372 -314.95898438 227.22460938 C-315.90420398 220.9652519 -317.55923998 217.41611612 -322.08398438 212.94555664 C-329.27918871 205.38097393 -332.80078125 191.36874477 -332.80078125 181.140625 C-332.14078125 181.140625 -331.48078125 181.140625 -330.80078125 181.140625 C-329.64672852 182.60253906 -329.64672852 182.60253906 -328.3671875 184.65625 C-327.64958252 185.78281006 -327.64958252 185.78281006 -326.91748047 186.93212891 C-326.14815186 188.14908447 -326.14815186 188.14908447 -325.36328125 189.390625 C-314.09811702 206.7119633 -300.07247844 220.11663386 -280.80078125 228.140625 C-280.97206543 227.36984619 -281.14334961 226.59906738 -281.31982422 225.80493164 C-283.81347656 214.58349609 -286.30712891 203.36206055 -288.80078125 192.140625 C-284.89725235 192.77450856 -281.63371817 193.96370877 -278.03125 195.58203125 C-276.90605957 196.07985107 -275.78086914 196.5776709 -274.62158203 197.09057617 C-272.82309814 197.88878784 -272.82309814 197.88878784 -270.98828125 198.703125 C-261.59371908 202.82143494 -252.17373513 206.60570495 -242.42578125 209.828125 C-241.4411792 210.15433838 -240.45657715 210.48055176 -239.44213867 210.81665039 C-234.91474842 212.27427433 -230.53842322 213.54643913 -225.80078125 214.140625 C-224.90013904 216.6624232 -224.60670406 217.71365518 -225.73828125 220.203125 C-226.08890625 220.8425 -226.43953125 221.481875 -226.80078125 222.140625 C-226.80078125 223.130625 -226.80078125 224.120625 -226.80078125 225.140625 C-236.42641459 224.76820466 -244.79636752 221.72021917 -253.80078125 218.578125 C-256.06587502 217.79719917 -258.33196975 217.01933161 -260.59912109 216.24440002 C-262.00059174 215.76438393 -263.40071968 215.28042537 -264.79931641 214.792099 C-268.22002325 213.5554053 -268.22002325 213.5554053 -271.80078125 213.140625 C-271.4759375 214.46513672 -271.4759375 214.46513672 -271.14453125 215.81640625 C-267.40539176 231.93278988 -267.40539176 231.93278988 -268.80078125 238.140625 C-271.5859279 240.93793386 -272.53784188 241.13631452 -276.61328125 241.203125 C-285.70069794 239.85963649 -294.70594796 235.29373455 -302.80078125 231.140625 C-299.52979651 245.2214355 -291.27409069 255.64928828 -281.80078125 266.140625 C-281.20523438 266.80835938 -280.6096875 267.47609375 -279.99609375 268.1640625 C-267.38142369 281.53184719 -250.39712386 290.41083039 -234.79296875 299.73046875 C-219.39452782 308.95454091 -205.81870036 318.7774533 -192.80078125 331.140625 C-191.83398438 332.01074219 -191.83398438 332.01074219 -190.84765625 332.8984375 C-182.52962617 340.63342809 -176.32895219 350.57043313 -171.23828125 360.640625 C-170.9038501 361.29861084 -170.56941895 361.95659668 -170.22485352 362.63452148 C-168.37103213 366.45482743 -167.27606463 369.92167112 -166.80078125 374.140625 C-146.88130262 366.47726056 -130.47686845 357.92393672 -114.80078125 343.140625 C-114.12402344 342.52832031 -113.44726562 341.91601562 -112.75 341.28515625 C-97.20929492 326.67876209 -86.37540177 305.52578394 -80.80078125 285.140625 C-80.4965625 284.03847656 -80.19234375 282.93632813 -79.87890625 281.80078125 C-70.78072478 247.08177745 -80.52558808 215.67477485 -92.44433594 183.14672852 C-96.19849718 172.89021574 -99.64566309 162.86179362 -101.80078125 152.140625 C-102.02072754 151.09624268 -102.02072754 151.09624268 -102.24511719 150.03076172 C-109.62309441 114.18013907 -103.74512361 74.94196955 -83.96337891 43.87304688 C-75.11453437 30.68711642 -64.58382948 20.44581851 -51.80078125 11.140625 C-51.03378906 10.57085937 -50.26679687 10.00109375 -49.4765625 9.4140625 C-37.22848376 1.19003835 -14.11565851 -7.72171639 0 0 Z "
        fill="#3C2062" transform="translate(674.80078125,235.859375)" />
    <path
        d="M0 0 C2.6639788 2.63335835 3.84194485 4.19216256 4.5625 7.875 C3.69762068 12.67988512 1.09372425 16.42043809 -2.77856445 19.34179688 C-4.79905119 20.5707501 -6.8492376 21.70276462 -8.9375 22.8125 C-34.95769082 37.40097968 -56.31849352 57.67255795 -65 87 C-67.22433628 96.5997671 -68.93204548 108.4063472 -66 118 C-62.29218756 113.85188483 -58.71255547 109.65510331 -55.3125 105.25 C-30.73105528 74.42865009 9.25045961 53.93181097 48.1394043 48.71289062 C55.60894353 47.9014252 63.05340011 47.74517358 70.5625 47.6875 C71.82513672 47.65849609 73.08777344 47.62949219 74.38867188 47.59960938 C81.65978211 47.55024936 87.80649036 47.88665838 94 52 C97.98532126 56.38385339 99.09199731 60.20416921 99 66 C96.18104657 69.81387817 93.4564913 71.57330022 89 73 C85.93579102 73.17944336 85.93579102 73.17944336 82.50390625 73.08984375 C81.23401855 73.06744629 79.96413086 73.04504883 78.65576172 73.02197266 C77.9880072 73.00741028 77.32025269 72.9928479 76.63226318 72.97784424 C49.63930999 72.45169219 24.13931364 76.42803879 0 89 C-1.45599609 89.72316406 -1.45599609 89.72316406 -2.94140625 90.4609375 C-24.76121138 101.69674043 -44.61235981 120.77428508 -53.5625 143.9375 C-58.56266969 160.85588237 -52.74383188 177.33298084 -47.38891602 193.32397461 C-38.98206906 218.51379993 -35.70336265 243.86956396 -42 270 C-42.17692383 270.75974121 -42.35384766 271.51948242 -42.53613281 272.30224609 C-49.34750634 301.17705839 -61.7011887 326.9864774 -82.484375 348.43310547 C-83.53269052 349.51688269 -84.573928 350.60753482 -85.609375 351.70361328 C-95.39165817 362.05443452 -105.76155877 370.65693526 -118 378 C-112.72 378.33 -107.44 378.66 -102 379 C-102 379.33 -102 379.66 -102 380 C-121.00923037 380.21738637 -140.00169499 379.56639412 -159 379 C-155.94397752 375.7347583 -153.39922289 373.39151614 -149.26171875 371.67578125 C-148.36718994 371.29252686 -147.47266113 370.90927246 -146.55102539 370.5144043 C-145.60606201 370.11777588 -144.66109863 369.72114746 -143.6875 369.3125 C-110.40120456 354.68666207 -83.4738057 328.7657086 -70.02539062 294.51806641 C-55.65948069 254.45683963 -59.94302448 217.17896503 -74.828125 178.19921875 C-87.15329946 145.80436847 -94.68910841 112.18655012 -85 78 C-84.72712158 76.97374512 -84.72712158 76.97374512 -84.44873047 75.92675781 C-77.13925138 48.58316581 -61.4610017 23.45756647 -36.70605469 8.96191406 C-32.59417612 6.64353948 -28.39750999 4.70679612 -24 3 C-22.80697266 2.52240234 -22.80697266 2.52240234 -21.58984375 2.03515625 C-14.76447999 -0.37314283 -7.13979711 -1.36681254 0 0 Z "
        fill="#C798E4" transform="translate(670,245)" />
    <path
        d="M0 0 C13.91377113 8.0941673 23.08943848 19.91626245 27.52734375 35.41796875 C31.07806161 51.51175501 28.36217599 68.37984028 19.8984375 82.4609375 C11.84255112 94.25996301 1.45813849 101.22845445 -12.34765625 104.54296875 C-27.98912792 106.08834818 -39.52034178 103.70533623 -52.34765625 94.54296875 C-53.00765625 94.21296875 -53.66765625 93.88296875 -54.34765625 93.54296875 C-54.34765625 110.37296875 -54.34765625 127.20296875 -54.34765625 144.54296875 C-63.25765625 144.54296875 -72.16765625 144.54296875 -81.34765625 144.54296875 C-81.34765625 96.69296875 -81.34765625 48.84296875 -81.34765625 -0.45703125 C-73.09765625 -0.45703125 -64.84765625 -0.45703125 -56.34765625 -0.45703125 C-56.34765625 2.84296875 -56.34765625 6.14296875 -56.34765625 9.54296875 C-55.79078125 9.0840625 -55.23390625 8.62515625 -54.66015625 8.15234375 C-49.81663754 4.2578929 -45.11940255 0.89855573 -39.34765625 -1.45703125 C-38.5071875 -1.8128125 -37.66671875 -2.16859375 -36.80078125 -2.53515625 C-25.35234252 -5.59152677 -10.7622146 -5.04876559 0 0 Z "
        fill="#412266" transform="translate(483.34765625,689.45703125)" />
    <path
        d="M0 0 C30.69 0 61.38 0 93 0 C93 8.91 93 17.82 93 27 C71.55 27 50.1 27 28 27 C28 37.23 28 47.46 28 58 C46.48 58 64.96 58 84 58 C84 66.58 84 75.16 84 84 C65.52 84 47.04 84 28 84 C28 94.23 28 104.46 28 115 C49.78 115 71.56 115 94 115 C94 123.58 94 132.16 94 141 C62.98 141 31.96 141 0 141 C0 94.47 0 47.94 0 0 Z "
        fill="#442569" transform="translate(193,650)" />
    <path
        d="M0 0 C12.28524179 9.39811041 19.03943321 21.65967334 21.6875 36.8125 C21.6875 43.0825 21.6875 49.3525 21.6875 55.8125 C-3.7225 55.8125 -29.1325 55.8125 -55.3125 55.8125 C-51.69588078 68.21032524 -51.69588078 68.21032524 -42.375 75.77734375 C-34.38574168 79.78710408 -25.6167678 79.88791287 -17.0625 77.6875 C-10.97863067 75.6530851 -6.84020791 72.10406187 -3.3125 66.8125 C4.94968593 68.40695693 12.75038986 71.07268069 20.6875 73.8125 C15.09642427 85.50293107 4.49252805 93.99498681 -7.46582031 98.65087891 C-14.33105304 100.97753752 -20.85099579 101.35419415 -28.0625 101.3125 C-29.20976563 101.30677979 -30.35703125 101.30105957 -31.5390625 101.29516602 C-45.86371022 100.99369065 -56.91533062 96.62277045 -67.4921875 86.78515625 C-79.97665468 73.7589103 -81.90386887 59.1985013 -81.62109375 41.94921875 C-81.14449517 28.85561215 -76.05588292 16.68352261 -67.0625 7 C-49.10242171 -9.40007149 -20.88336219 -13.54426205 0 0 Z "
        fill="#3F2164" transform="translate(609.3125,693.1875)" />
    <path
        d="M0 0 C12.36055157 8.41228905 17.68157637 19.53880548 21.25 33.8125 C21.25 41.0725 21.25 48.3325 21.25 55.8125 C-3.83 55.8125 -28.91 55.8125 -54.75 55.8125 C-52.69576992 64.02942032 -51.077523 69.92769313 -43.875 74.6875 C-35.90578685 79.09505364 -27.72587025 80.08156922 -18.84375 78.1953125 C-11.88299386 76.03441842 -7.94718687 72.71434639 -3.75 66.8125 C4.9178988 68.17896875 12.99670244 70.92934805 21.25 73.8125 C12.77182788 87.50800881 2.03158762 95.75898215 -13.55371094 100.34301758 C-29.50937874 103.7537278 -46.49812942 101.35336839 -60.125 92.5625 C-70.80700192 84.41966247 -78.59231149 73.27653184 -80.75 59.8125 C-81.07367078 55.55900461 -81.120087 51.32698512 -81.125 47.0625 C-81.14949219 45.9590625 -81.17398438 44.855625 -81.19921875 43.71875 C-81.25126728 28.93696698 -75.59875179 17.03181497 -65.8125 6.125 C-48.27446879 -10.71515108 -20.35996674 -11.89508926 0 0 Z "
        fill="#3F2165" transform="translate(729.75,693.1875)" />
    <path
        d="M0 0 C8.91 0 17.82 0 27 0 C27 25.41 27 50.82 27 77 C27.66 77 28.32 77 29 77 C29.26337158 76.40993164 29.52674316 75.81986328 29.7980957 75.21191406 C31.05201652 72.90427185 32.35195261 71.43272606 34.23046875 69.609375 C35.18240112 68.67496582 35.18240112 68.67496582 36.15356445 67.72167969 C36.82476318 67.07102539 37.49596191 66.42037109 38.1875 65.75 C44.16495522 59.90722988 44.16495522 59.90722988 49.8125 53.75 C50.2866333 53.20996338 50.7607666 52.66992676 51.24926758 52.11352539 C53.09521554 49.94786069 53.09521554 49.94786069 54.89672852 47.25170898 C58.24898868 42.83177064 61.21008233 38.98028883 66.90649414 38.10693359 C71.32833528 37.78648209 75.7074585 38.03569146 80.125 38.3125 C81.66909488 38.36778521 83.21338174 38.41795638 84.7578125 38.46289062 C88.51002138 38.5830664 92.25285229 38.77213722 96 39 C91.72243626 45.11051163 86.90636422 50.31205754 81.5625 55.5 C76.71624041 60.22994936 72.04699773 65.00195726 67.63208008 70.13867188 C65.22721307 72.88133546 62.66399329 75.44528321 60.0625 78 C59.32290039 78.73283203 59.32290039 78.73283203 58.56835938 79.48046875 C57.38126771 80.65603525 56.19099502 81.82838826 55 83 C56.47254914 87.67904668 59.2216657 90.85357915 62.4375 94.4375 C66.57437795 99.15238361 70.59269042 103.9186948 74.4375 108.875 C78.52336043 114.13338332 82.67188997 119.33473225 86.875 124.5 C87.4105249 125.1585498 87.9460498 125.81709961 88.49780273 126.49560547 C89.01157471 127.12611816 89.52534668 127.75663086 90.0546875 128.40625 C90.54678711 129.01082031 91.03888672 129.61539063 91.54589844 130.23828125 C92.51551986 131.41302741 93.49806669 132.57722313 94.49316406 133.73046875 C98 137.80165144 98 137.80165144 98 140 C98.66 140 99.32 140 100 140 C100 140.66 100 141.32 100 142 C95.19921156 142.32427388 90.40491755 142.55843457 85.59570312 142.71411133 C83.96534171 142.7790358 82.33572419 142.86743041 80.70800781 142.98071289 C67.60074948 143.86927243 67.60074948 143.86927243 63.3218689 140.79385376 C59.85454287 137.31109757 57.46728737 133.22031066 55 129 C54.02938496 127.6986274 53.03658369 126.41284995 52.00390625 125.16015625 C50.2729523 122.96392188 48.54248688 120.76730824 46.8125 118.5703125 C46.35359375 117.98797852 45.8946875 117.40564453 45.421875 116.80566406 C43.94620149 114.93168032 42.47277523 113.05594972 41 111.1796875 C40.50814209 110.55312256 40.01628418 109.92655762 39.50952148 109.28100586 C38.57403301 108.08919323 37.63864217 106.89730397 36.70336914 105.70532227 C34.72437979 103.18535188 32.73606708 100.68354755 30.68359375 98.22265625 C29 96 29 96 29 94 C28.34 94 27.68 94 27 94 C27 109.84 27 125.68 27 142 C18.09 142 9.18 142 0 142 C0 95.14 0 48.28 0 0 Z "
        fill="#3F2165" transform="translate(772,650)" />
    <path
        d="M0 0 C0.33 0 0.66 0 1 0 C1.17015625 0.70125 1.3403125 1.4025 1.515625 2.125 C3.55634243 10.11419165 5.56121391 16.65735034 11.4921875 22.53515625 C15.76382712 27.34297332 16.54920957 32.01069451 17.375 38.25 C17.6740842 40.19276918 17.9735483 42.13547992 18.2734375 44.078125 C18.39122559 44.92793945 18.50901367 45.77775391 18.63037109 46.65332031 C18.92982885 48.985031 18.92982885 48.985031 19.70092773 51.07177734 C20 53 20 53 19.0378418 54.87255859 C-0.68752864 79.44170501 -31.83507856 104.743391 -64 110 C-67.48529289 110.23732273 -70.94572685 110.23596142 -74.4375 110.1875 C-75.34693359 110.18685547 -76.25636719 110.18621094 -77.19335938 110.18554688 C-83.85925752 110.14074248 -83.85925752 110.14074248 -85 109 C-84.94740162 107.38750072 -84.81711422 105.77757881 -84.66015625 104.171875 C-84.1477861 98.62215787 -83.67969204 93.07192102 -83.24609375 87.515625 C-83.11271801 85.82290975 -82.97925338 84.13020149 -82.84570312 82.4375 C-82.70962953 80.7083338 -82.5735619 78.97916712 -82.4375 77.25 C-82.29755062 75.4739564 -82.15757684 73.69791472 -82.01757812 71.921875 C-81.67810444 67.61460542 -81.33895992 63.30731004 -81 59 C-80.44127197 58.84442627 -79.88254395 58.68885254 -79.30688477 58.52856445 C-76.7219743 57.80156672 -74.14237798 57.05715074 -71.5625 56.3125 C-70.68400391 56.06822266 -69.80550781 55.82394531 -68.90039062 55.57226562 C-63.46123756 53.98668226 -58.75401846 51.98935528 -53.89038086 49.07495117 C-52 48 -52 48 -49 47 C-49 46.34 -49 45.68 -49 45 C-50.65 44.67 -52.3 44.34 -54 44 C-51.80894801 41.80894801 -49.57204147 40.75561956 -46.79638672 39.43847656 C-30.09434046 31.51090193 -11.77917716 19.40769992 -1 4 C-0.27947415 1.85440422 -0.27947415 1.85440422 0 0 Z "
        fill="#A16CCF" transform="translate(344,428)" />
    <path
        d="M0 0 C6.57505386 4.78185735 10.51595664 10.53527787 13.125 18.1875 C13.125 19.1775 13.125 20.1675 13.125 21.1875 C10.60525747 21.83785371 8.08434065 22.48287493 5.5625 23.125 C4.85802734 23.30740234 4.15355469 23.48980469 3.42773438 23.67773438 C-0.99637098 24.7990514 -5.34555438 25.62206329 -9.875 26.1875 C-10.37 25.115 -10.865 24.0425 -11.375 22.9375 C-13.9113521 18.53460709 -17.0733362 16.65954292 -21.875 15.1875 C-27.50079407 14.22806225 -32.9276883 15.36208575 -37.875 18.1875 C-40.6721157 21.23889894 -40.88410195 22.65958713 -40.8125 26.8125 C-39.71989274 30.74588612 -39.31619092 31.19721873 -35.875 33.1875 C-32.97985617 34.17843239 -30.03433582 34.90219258 -27.0625 35.625 C-26.22025879 35.840354 -25.37801758 36.05570801 -24.51025391 36.27758789 C-20.55112674 37.28850049 -16.58476834 38.25940548 -12.60546875 39.1875 C-2.15730401 41.72808717 5.87640804 45.18217629 12.125 54.1875 C14.6553739 59.22977792 15.64940357 63.38023846 15.5625 69.0625 C15.55420166 69.76503906 15.54590332 70.46757813 15.53735352 71.19140625 C15.34833088 77.01411068 14.36457059 81.36199037 11.125 86.1875 C10.66222656 86.88230469 10.19945312 87.57710937 9.72265625 88.29296875 C3.60167095 96.26970509 -6.08924106 100.57664096 -15.875 102.1875 C-19.67128781 102.48052453 -23.44375105 102.512455 -27.25 102.5 C-28.71566406 102.52416992 -28.71566406 102.52416992 -30.2109375 102.54882812 C-42.00659657 102.55667098 -52.38553021 99.13709878 -61.17578125 91.078125 C-67.23181786 84.65673335 -70.07822456 79.16748505 -69.875 70.1875 C-66.81602269 69.4836526 -63.75243931 68.80237171 -60.6875 68.125 C-59.82318359 67.92583984 -58.95886719 67.72667969 -58.06835938 67.52148438 C-49.53375678 65.65760565 -49.53375678 65.65760565 -45.875 67.1875 C-44.82781202 69.50004012 -43.83153635 71.8360148 -42.875 74.1875 C-37.50898377 79.27833591 -33.23898342 80.53327932 -25.9375 80.5 C-25.23431641 80.51611328 -24.53113281 80.53222656 -23.80664062 80.54882812 C-19.28854162 80.55306252 -16.48222155 79.91782791 -12.875 77.1875 C-10.49374088 74.80624088 -10.52978359 74.08042462 -10.4375 70.8125 C-10.39753906 70.04164063 -10.35757813 69.27078125 -10.31640625 68.4765625 C-11.16556907 64.99677639 -12.88308545 64.05993653 -15.875 62.1875 C-18.37271509 61.37560164 -20.69974335 60.73327477 -23.25 60.1875 C-24.67469075 59.85507216 -26.09916506 59.52171555 -27.5234375 59.1875 C-28.24499023 59.0225 -28.96654297 58.8575 -29.70996094 58.6875 C-55.84430504 52.65196361 -55.84430504 52.65196361 -62.3203125 43.04296875 C-66.94803259 35.07006814 -68.4462891 26.62410596 -66.2265625 17.53125 C-62.23200712 6.46940432 -55.40089399 1.44304438 -45.08203125 -3.46484375 C-31.75339965 -9.06579126 -12.1823399 -7.54710814 0 0 Z "
        fill="#3E2164" transform="translate(368.875,691.8125)" />
    <path
        d="M0 0 C2.2863106 2.2863106 2.63011608 4.07515305 3.39013672 7.14794922 C8.58492795 27.69077664 20.97427416 44.82013829 32.55664062 62.21875 C37.84547341 70.16713835 43.08410604 78.11154549 47.875 86.375 C48.30232422 87.10412598 48.72964844 87.83325195 49.16992188 88.58447266 C51.11716309 92.01895706 52.5282167 95.05832664 53 99 C51.83984375 99.4846875 50.6796875 99.969375 49.484375 100.46875 C26.56555489 110.22400315 10.27665036 124.53809785 -4 145 C-7.35115792 140.83231629 -8.77498726 136.59212715 -10.4375 131.5625 C-10.74316895 130.6432373 -11.04883789 129.72397461 -11.36376953 128.77685547 C-14.48840727 119.02871432 -16.43665969 109.1049196 -18 99 C-18.176521 97.89897949 -18.35304199 96.79795898 -18.53491211 95.66357422 C-19.25476833 89.99314776 -19.1859604 84.32997341 -19.18530273 78.62402344 C-19.18746587 76.5329885 -19.20559634 74.44250281 -19.22460938 72.3515625 C-19.33611297 46.02428231 -11.24131706 23.44712583 0 0 Z "
        fill="#C799E3" transform="translate(188,192)" />
    <path
        d="M0 0 C1.94020422 1.86259605 3.78872521 3.73660703 5.47265625 5.8359375 C9.96428848 11.3788028 14.68231383 14.73895905 21 18 C21.8559375 18.44214844 22.711875 18.88429688 23.59375 19.33984375 C48.25816156 31.2730664 77.7376281 31.60246846 104 25 C105.58211573 24.93451508 107.16670081 24.91421619 108.75 24.9375 C109.54921875 24.94652344 110.3484375 24.95554687 111.171875 24.96484375 C111.77515625 24.97644531 112.3784375 24.98804688 113 25 C111.56506994 29.30479018 108.99092901 30.23113305 105.16015625 32.44140625 C97.22385195 36.3556033 88.78649404 38.95103473 80 40 C80.02320313 40.64839844 80.04640625 41.29679687 80.0703125 41.96484375 C80.34324267 56.80054776 78.93454022 71.75592042 76.875 86.4375 C73.77421551 109.93947768 77.23038487 132.2021561 91.06640625 151.94921875 C96.48942511 158.90504079 101.95313635 163.23438428 109 169 C109 157.78 109 146.56 109 135 C109.99 135 110.98 135 112 135 C114.99716212 140.60533086 117.06295315 145.91194053 118.625 152.0625 C118.82867187 152.80693359 119.03234375 153.55136719 119.2421875 154.31835938 C121.21627849 161.90468983 121.94124839 169.05936292 123 177 C107.82 177 92.64 177 77 177 C74.9375 165.9375 74.9375 165.9375 74.22753906 162.11694336 C73.03637489 155.87676563 71.71258509 149.71447405 70.109375 143.56640625 C61.28631155 109.3408479 65.44341961 75.78543716 69 41 C68.25266602 41.02465332 67.50533203 41.04930664 66.73535156 41.07470703 C59.74052546 41.20603936 53.51602103 40.61331094 46.75 38.875 C45.84958984 38.65054199 44.94917969 38.42608398 44.02148438 38.19482422 C26.36904321 33.64409745 10.11378984 27.05458537 -3 14 C-2.67 13.34 -2.34 12.68 -2 12 C-1.34 12.33 -0.68 12.66 0 13 C0.33 12.01 0.66 11.02 1 10 C1.66 10 2.32 10 3 10 C2.39009109 6.44219804 1.4216319 3.3171411 0 0 Z "
        fill="#3D2062" transform="translate(183,447)" />
    <path
        d="M0 0 C1.0904278 16.86528337 -3.26882047 32.18775337 -13.6875 45.75 C-21.39453212 54.1412073 -33.63929937 60.22978301 -45 61 C-45.91007812 61.06316406 -46.82015625 61.12632812 -47.7578125 61.19140625 C-57.73474551 61.57136316 -69.15834394 59.99452327 -78 55 C-77.76782645 43.39132244 -70.49057306 32.43960494 -63 24 C-62.49210937 23.39929688 -61.98421875 22.79859375 -61.4609375 22.1796875 C-45.81475321 4.99200722 -22.14374969 -0.27641296 0 0 Z "
        fill="#402265" transform="translate(319,369)" />
    <path
        d="M0 0 C0.44916888 8.23476277 -1.0677838 15.95836806 -2.65869141 23.99951172 C-3.07911176 26.25678671 -3.07911176 26.25678671 -3.23828125 29.609375 C-4.27131415 34.20769582 -6.47180251 36.36279817 -9.75 39.625 C-10.35690674 40.25035645 -10.96381348 40.87571289 -11.58911133 41.52001953 C-12.95067967 42.91571534 -14.32006327 44.30381555 -15.69580078 45.68554688 C-18.21740561 48.21837308 -20.71586325 50.7729825 -23.21484375 53.328125 C-25.03762301 55.17850245 -26.86183544 57.02746924 -28.6875 58.875 C-29.54118164 59.74205566 -30.39486328 60.60911133 -31.27441406 61.50244141 C-36.42604437 66.65900433 -41.76632045 71.36060317 -47.46606445 75.90234375 C-49.71592698 77.76483713 -51.73735839 79.68886082 -53.765625 81.78515625 C-57.44477239 85.37055413 -60.93029698 88.66476547 -66 90 C-74.14803692 89.29596455 -81.75710365 85.60621601 -89 82 C-89 78.54150564 -88.60547119 78.18204457 -86.40234375 75.70703125 C-85.56993164 74.76053711 -85.56993164 74.76053711 -84.72070312 73.79492188 C-84.13224609 73.14072266 -83.54378906 72.48652344 -82.9375 71.8125 C-82.37611328 71.17763672 -81.81472656 70.54277344 -81.23632812 69.88867188 C-80.0797806 68.58144273 -78.91942578 67.27757381 -77.75561523 65.97680664 C-76.61642904 64.69409344 -75.48762132 63.40205846 -74.37133789 62.09936523 C-69.37366855 56.27035069 -64.00153691 50.85334273 -58.5625 45.4375 C-57.65951172 44.53064453 -56.75652344 43.62378906 -55.82617188 42.68945312 C-50.71195695 37.58264474 -45.4948125 32.69242908 -40 28 C-39.00095115 27.11253446 -38.00343968 26.22333379 -37.0078125 25.33203125 C-28.23751163 17.6669309 -18.81329622 11.25482573 -9 5 C-8.24541504 4.51756836 -7.49083008 4.03513672 -6.71337891 3.53808594 C-1.12777802 0 -1.12777802 0 0 0 Z "
        fill="#5F489B" transform="translate(469,278)" />
    <path
        d="M0 0 C7.70478088 5.4543197 12.02989109 11.08967327 15 20 C15.78966663 30.96421738 15.00200747 38.80904806 7.8125 47.3125 C2.74226111 52.63914575 -3.08155548 56.62109761 -10.63671875 57.203125 C-20.62764359 57.35663473 -26.82535948 55.83215754 -34.23828125 48.97265625 C-40.9867263 41.41619339 -41.60372078 32.37673225 -41.40234375 22.67578125 C-40.98426654 15.31553939 -38.23475868 9.33459692 -33.1015625 4.04296875 C-23.37265876 -3.85936215 -11.38578549 -5.49298964 0 0 Z "
        fill="#F9F9FA" transform="translate(470,713)" />
    <path
        d="M0 0 C5.10128697 4.26362177 8.3069552 8.31778901 9.2109375 15.09765625 C9.29886496 25.60498799 7.59317312 32.611187 0.4921875 40.45703125 C-4.26675742 44.83319147 -9.43392121 47.07776495 -15.7578125 48.20703125 C-23.31327428 46.85784165 -28.91656938 41.68690438 -33.2578125 35.58203125 C-35.29068267 29.48342073 -35.37981343 22.02853636 -33.38671875 15.90625 C-29.26656205 8.08470663 -23.1329072 2.44528525 -15.2578125 -1.41796875 C-9.98714794 -3.05113242 -4.75532097 -2.98647321 0 0 Z "
        fill="#E4121E" transform="translate(239.2578125,341.41796875)" />
    <path
        d="M0 0 C1.05550049 0.01244751 1.05550049 0.01244751 2.13232422 0.02514648 C8.79701626 0.24225505 12.99891227 1.52571166 17.796875 6.0859375 C22.31381007 11.01154765 24.0625 14.63472634 24.0625 21.4375 C7.5625 21.4375 -8.9375 21.4375 -25.9375 21.4375 C-22.54221567 10.11988558 -22.54221567 10.11988558 -19.1875 7 C-18.55328125 6.38253906 -17.9190625 5.76507812 -17.265625 5.12890625 C-11.84794323 1.1929059 -6.60673073 -0.10048561 0 0 Z "
        fill="#F9F9FA" transform="translate(579.9375,707.5625)" />
    <path
        d="M0 0 C5.16014075 3.68118828 8.4788904 8.08469429 9.8671875 14.33203125 C9.8671875 15.65203125 9.8671875 16.97203125 9.8671875 18.33203125 C-6.6328125 18.33203125 -23.1328125 18.33203125 -40.1328125 18.33203125 C-37.18221986 9.48025332 -34.58070931 3.76699986 -26.6328125 -1.16796875 C-18.63087641 -4.66199153 -7.66593296 -4.09331892 0 0 Z "
        fill="#F9F9FA" transform="translate(715.1328125,710.66796875)" />
    <path
        d="M0 0 C5.10128697 4.26362177 8.3069552 8.31778901 9.2109375 15.09765625 C9.29886496 25.60498799 7.59317312 32.611187 0.4921875 40.45703125 C-4.26675742 44.83319147 -9.43392121 47.07776495 -15.7578125 48.20703125 C-23.31327428 46.85784165 -28.91656938 41.68690438 -33.2578125 35.58203125 C-35.29068267 29.48342073 -35.37981343 22.02853636 -33.38671875 15.90625 C-29.26656205 8.08470663 -23.1329072 2.44528525 -15.2578125 -1.41796875 C-9.98714794 -3.05113242 -4.75532097 -2.98647321 0 0 Z M-25.65234375 11.21875 C-29.0727603 16.21038263 -29.11054336 21.73350346 -28.2578125 27.58203125 C-26.6092751 32.36896069 -23.6619105 36.07970284 -19.2578125 38.58203125 C-14.49078053 39.18736864 -12.34356691 39.13555311 -8.0703125 36.95703125 C-3.02110067 32.69325237 1.06860057 28.31534481 2.03125 21.55078125 C2.43661304 15.32099138 0.6079374 11.39516211 -3.2578125 6.58203125 C-6.04926594 3.44440812 -8.25711745 2.73900302 -12.4453125 2.08203125 C-18.56608224 2.88475515 -21.76765291 6.65940697 -25.65234375 11.21875 Z "
        fill="#3E2368" transform="translate(239.2578125,341.41796875)" />
    <path
        d="M0 0 C30.69 0 61.38 0 93 0 C93 8.58 93 17.16 93 26 C71.55 26 50.1 26 28 26 C28 25.67 28 25.34 28 25 C48.79 25 69.58 25 91 25 C91 17.41 91 9.82 91 2 C61.3 2 31.6 2 1 2 C1 47.54 1 93.08 1 140 C31.36 140 61.72 140 93 140 C93 132.41 93 124.82 93 117 C71.22 117 49.44 117 27 117 C27 116.67 27 116.34 27 116 C49.11 116 71.22 116 94 116 C94 124.25 94 132.5 94 141 C62.98 141 31.96 141 0 141 C0 94.47 0 47.94 0 0 Z "
        fill="#08002E" transform="translate(193,650)" />
    <path
        d="M0 0 C8.25 0 16.5 0 25 0 C25 3.3 25 6.6 25 10 C24.67 10 24.34 10 24 10 C24 7.03 24 4.06 24 1 C16.74 1 9.48 1 2 1 C2 47.86 2 94.72 2 143 C9.59 143 17.18 143 25 143 C25 126.5 25 110 25 93 C25.66 93.33 26.32 93.66 27 94 C27 110.83 27 127.66 27 145 C18.09 145 9.18 145 0 145 C0 97.15 0 49.3 0 0 Z "
        fill="#21074D" transform="translate(402,689)" />
    <path
        d="M0 0 C2.57691616 3.86537424 2.58559425 5.38844528 2 10 C-0.60767836 16.14530084 -3.97813263 21.00420488 -9.90625 24.23046875 C-13.48517545 25.54585739 -16.21652715 25.45662603 -20 25 C-22 23 -22 23 -22.5 20.4375 C-21.27405262 12.00911174 -14.52464515 5.9375693 -8 1 C-5.21136993 -0.39431504 -3.07921132 -0.25660094 0 0 Z "
        fill="#F9F8FA" transform="translate(277,387)" />
    <path
        d="M0 0 C30.36 0 60.72 0 92 0 C92 8.58 92 17.16 92 26 C70.55 26 49.1 26 27 26 C27 25.67 27 25.34 27 25 C47.79 25 68.58 25 90 25 C90 17.41 90 9.82 90 2 C60.3 2 30.6 2 0 2 C0 1.34 0 0.68 0 0 Z "
        fill="#250B53" transform="translate(194,650)" />
    <path
        d="M0 0 C0.24856408 6.58694802 -0.68452977 12.55597352 -2 19 C-2.19078125 19.96550781 -2.3815625 20.93101562 -2.578125 21.92578125 C-3.04533667 24.28520017 -3.52172721 26.64279837 -4 29 C-7.96 29 -11.92 29 -16 29 C-14.98042685 21.52313023 -9.83820626 0 0 0 Z "
        fill="#391D5E" transform="translate(382,595)" />
    <path
        d="M0 0 C4.55555556 0.55555556 4.55555556 0.55555556 6 2 C6.59996739 7.87968045 5.3045799 12.19233359 2 17 C-1.22373677 19.14915785 -2.26703674 19.38286803 -6 19 C-8 17 -8 17 -8.5 14.4375 C-7.66507997 8.69742478 -4.05689362 4.05689362 0 0 Z "
        fill="#FA7695" transform="translate(219,347)" />
    <path
        d="M0 0 C2.5625 2.0625 2.5625 2.0625 4 4 C3.175 3.690625 2.35 3.38125 1.5 3.0625 C-2.39126155 1.88122417 -5.96166953 1.41775832 -10 1 C-10 1.66 -10 2.32 -10 3 C-11.03125 3.515625 -12.0625 4.03125 -13.125 4.5625 C-18.44646641 7.59562791 -22.70766462 12.28458083 -25 18 C-25.28480806 20.0742625 -25.48874224 22.16071439 -25.625 24.25 C-25.69976562 25.32765625 -25.77453125 26.4053125 -25.8515625 27.515625 C-25.90054688 28.33546875 -25.94953125 29.1553125 -26 30 C-28.4294516 26.3558226 -28.16179575 24.28758728 -28 20 C-28.66 20 -29.32 20 -30 20 C-30.33 23.96 -30.66 27.92 -31 32 C-31.33 32 -31.66 32 -32 32 C-32.73104103 22.39899448 -31.54979365 16.44678384 -25.35546875 9.03125 C-18.23359295 1.4431566 -10.41737912 -2.56133725 0 0 Z "
        fill="#331A60" transform="translate(237,340)" />
    <path
        d="M0 0 C4.52893624 3.32121991 7.83814069 6.29000766 9 12 C9.22875943 16.34642908 9.17651548 20.65248903 9 25 C5.8947684 23.68499626 4.40489233 22.60179873 2.8125 19.625 C2.48894531 19.03976562 2.16539062 18.45453125 1.83203125 17.8515625 C0.00468963 13.78508397 -0.11076867 10.19071763 -0.0625 5.75 C-0.04896484 4.13351562 -0.04896484 4.13351562 -0.03515625 2.484375 C-0.02355469 1.66453125 -0.01195312 0.8446875 0 0 Z "
        fill="#F9F8FA" transform="translate(178,384)" />
    <path
        d="M0 0 C0.66 0.33 1.32 0.66 2 1 C2 1.66 2 2.32 2 3 C2.86625 2.4740625 2.86625 2.4740625 3.75 1.9375 C6.39786506 0.83422289 7.33185326 1.19843491 10 2 C9.3709375 2.25652344 8.741875 2.51304687 8.09375 2.77734375 C0.10908836 6.34879632 -6.55304245 11.72054314 -10 20 C-10.33457898 24.09859246 -10.32536063 25.51195905 -8 29 C-9.9375 28.3125 -9.9375 28.3125 -12 27 C-13.2652614 23.39887139 -12.9392247 20.65254051 -12 17 C-12.99 17 -13.98 17 -15 17 C-13.584092 12.54428953 -11.39547334 10.04758866 -8.0625 6.8125 C-7.18722656 5.95269531 -6.31195313 5.09289062 -5.41015625 4.20703125 C-3 2 -3 2 0 0 Z "
        fill="#2D1455" transform="translate(266,384)" />
    <path
        d="M0 0 C4.95 0 9.9 0 15 0 C15.33 1.65 15.66 3.3 16 5 C12.62391999 7.71733269 10.77136869 8.98670054 6.375 9.0625 C2.38949358 7.80780353 1.05805357 6.60159375 -1 3 C-0.67 2.01 -0.34 1.02 0 0 Z "
        fill="#371B5B" transform="translate(192,444)" />
    <path
        d="M0 0 C0.99 0.33 1.98 0.66 3 1 C2.01 1.495 2.01 1.495 1 2 C2.24976756 5.65316671 2.67098753 6.78065836 6 9 C7.65549531 9.38499891 9.3222433 9.72793135 11 10 C11 10.33 11 10.66 11 11 C9.576875 10.9071875 9.576875 10.9071875 8.125 10.8125 C6.578125 10.9053125 6.578125 10.9053125 5 11 C4.01 12.485 4.01 12.485 3 14 C8.49349789 17.81492909 13.95092327 21.14043646 20 24 C17 25 17 25 14.14453125 23.84765625 C5.76020191 19.3557002 -3.07497999 14.15838002 -7 5 C-6.67 4.01 -6.34 3.02 -6 2 C-5.67 2.66 -5.34 3.32 -5 4 C-4.01 4 -3.02 4 -2 4 C-1.34 2.68 -0.68 1.36 0 0 Z "
        fill="#D7A7EF" transform="translate(191,443)" />
    <path
        d="M0 0 C0.66 0 1.32 0 2 0 C3.15405273 1.46191406 3.15405273 1.46191406 4.43359375 3.515625 C4.91256104 4.2669873 5.39152832 5.01834961 5.88500977 5.79248047 C6.39733154 6.60346191 6.90965332 7.41444336 7.4375 8.25 C12.01591542 15.33226907 16.85647742 21.57011328 22.72265625 27.6171875 C24.67408942 29.6589958 26.36880856 31.70028747 28 34 C19.4564828 30.28626392 13.77113719 21.66094398 8.7265625 14.1875 C7.1140962 11.73316914 7.1140962 11.73316914 4 11 C3.67 11.99 3.34 12.98 3 14 C2.49307308 12.4188708 1.99473557 10.83498617 1.5 9.25 C1.2215625 8.36828125 0.943125 7.4865625 0.65625 6.578125 C0 4 0 4 0 0 Z "
        fill="#2C1452" transform="translate(342,417)" />
    <path
        d="M0 0 C1.7074998 1.28062485 3.37373596 2.61767557 5 4 C5 4.66 5 5.32 5 6 C5.66 6 6.32 6 7 6 C7 6.66 7 7.32 7 8 C-4.55 8 -16.1 8 -28 8 C-28 7.34 -28 6.68 -28 6 C-12.655 5.505 -12.655 5.505 3 5 C2.01 4.01 1.02 3.02 0 2 C0 1.34 0 0.68 0 0 Z "
        fill="#3E2E62" transform="translate(865,784)" />
    <path
        d="M0 0 C1.54409488 0.05528521 3.08838174 0.10545638 4.6328125 0.15039062 C8.38502138 0.2705664 12.12785229 0.45963722 15.875 0.6875 C13.875 2.6875 13.875 2.6875 10.89404297 2.91455078 C9.64768066 2.90407715 8.40131836 2.89360352 7.1171875 2.8828125 C6.45413605 2.8799826 5.79108459 2.87715271 5.10794067 2.87423706 C2.98844417 2.86303435 0.86936896 2.83793051 -1.25 2.8125 C-2.68619182 2.80247028 -4.12239025 2.79334441 -5.55859375 2.78515625 C-9.08086628 2.763095 -12.60289203 2.72856494 -16.125 2.6875 C-16.125 3.6775 -16.125 4.6675 -16.125 5.6875 C-17.953125 7.40625 -17.953125 7.40625 -20.375 9.1875 C-21.55835938 10.06921875 -21.55835938 10.06921875 -22.765625 10.96875 C-23.54421875 11.5359375 -24.3228125 12.103125 -25.125 12.6875 C-26.45942187 13.68604697 -27.79313437 14.68554604 -29.125 15.6875 C-22.61130078 1.35011954 -14.32870352 -0.89785406 0 0 Z "
        fill="#180B40" transform="translate(852.125,688.3125)" />
    <path
        d="M0 0 C-1.14018002 3.42054006 -1.92458518 4.2426201 -5 6 C-7.0625 5.625 -7.0625 5.625 -9 5 C-9.99 5.33 -10.98 5.66 -12 6 C-12 5.34 -12 4.68 -12 4 C-15.3 4 -18.6 4 -22 4 C-15.52682323 -0.31545118 -7.56166317 -0.24392462 0 0 Z "
        fill="#371A5C" transform="translate(296,472)" />
    <path
        d="M0 0 C0.99 0 1.98 0 3 0 C3.66 1.65 4.32 3.3 5 5 C5.33 5 5.66 5 6 5 C6 9.29 6 13.58 6 18 C5.34 17.34 4.68 16.68 4 16 C3.34 16.99 2.68 17.98 2 19 C1.90912109 17.948125 1.90912109 17.948125 1.81640625 16.875 C1.31802826 11.23182765 0.74178324 5.61635883 0 0 Z "
        fill="#492C6F" transform="translate(185,388)" />
    <path
        d="M0 0 C0.671875 1.71484375 0.671875 1.71484375 1 4 C-0.109375 6.25390625 -0.109375 6.25390625 -1.75 8.5625 C-2.28109375 9.32691406 -2.8121875 10.09132813 -3.359375 10.87890625 C-4.8043344 12.74703233 -6.2843475 14.38253243 -8 16 C-9.32 15.34 -10.64 14.68 -12 14 C-12.33 14.66 -12.66 15.32 -13 16 C-13 15.01 -13 14.02 -13 13 C-12.401875 12.79375 -11.80375 12.5875 -11.1875 12.375 C-8.18981233 10.49073918 -7.38638224 8.18867916 -6 5 C-5.67 5.99 -5.34 6.98 -5 8 C-4.34 8 -3.68 8 -3 8 C-2.690625 7.05125 -2.38125 6.1025 -2.0625 5.125 C-1 2 -1 2 0 0 Z "
        fill="#351C5D" transform="translate(246,367)" />
    <path
        d="M0 0 C2.59482129 2.59482129 2.69990302 4.39883625 3 8 C1 10 1 10 -1.5 10.75 C-4.32487611 11.82313064 -4.32487611 11.82313064 -5.3125 15.125 C-5.539375 16.07375 -5.76625 17.0225 -6 18 C-7.42600325 13.72199024 -5.45637064 11.13234078 -3.5625 7.3125 C-3.22412109 6.61060547 -2.88574219 5.90871094 -2.53710938 5.18554688 C-1.70018652 3.45276294 -0.85122607 1.72580248 0 0 Z "
        fill="#CEA2E7" transform="translate(188,192)" />
    <path
        d="M0 0 C5.57552338 -0.28838914 9.17362578 -0.178344 14 3 C15 6 15 6 14.0625 8.1875 C13.711875 8.785625 13.36125 9.38375 13 10 C12.236875 9.21625 11.47375 8.4325 10.6875 7.625 C7.18623228 4.20515711 4.76942085 2.7734196 0 2 C0 1.34 0 0.68 0 0 Z "
        fill="#452367" transform="translate(227,341)" />
    <path
        d="M0 0 C0.83080078 -0.00386719 1.66160156 -0.00773437 2.51757812 -0.01171875 C3.37673828 -0.00011719 4.23589844 0.01148438 5.12109375 0.0234375 C5.98412109 0.01183594 6.84714844 0.00023437 7.73632812 -0.01171875 C8.56583984 -0.00785156 9.39535156 -0.00398438 10.25 0 C11.00482666 0.00338379 11.75965332 0.00676758 12.53735352 0.01025391 C14.55859375 0.3984375 14.55859375 0.3984375 17.55859375 3.3984375 C8.97859375 3.3984375 0.39859375 3.3984375 -8.44140625 3.3984375 C-3.93363312 0.01760765 -3.93363312 0.01760765 0 0 Z "
        fill="#4A2B6E" transform="translate(274.44140625,284.6015625)" />
    <path
        d="M0 0 C6.84830097 6.48786408 6.84830097 6.48786408 7.1953125 12.234375 C7.17210937 13.39453125 7.14890625 14.5546875 7.125 15.75 C7.10695312 16.92046875 7.08890625 18.0909375 7.0703125 19.296875 C7.03550781 20.63492187 7.03550781 20.63492187 7 22 C6.67 22 6.34 22 6 22 C5.67 20.02 5.34 18.04 5 16 C4.34 16.33 3.68 16.66 3 17 C3 15.68 3 14.36 3 13 C3.66 13 4.32 13 5 13 C4.54554036 11.58208592 4.08625056 10.16571954 3.625 8.75 C3.36976563 7.96109375 3.11453125 7.1721875 2.8515625 6.359375 C2.04826333 4.13372042 1.10288338 2.09068328 0 0 Z M1 15 C1.99 16.485 1.99 16.485 3 18 C2.01 18.495 2.01 18.495 1 19 C1 17.68 1 16.36 1 15 Z "
        fill="#2D1556" transform="translate(241,344)" />
    <path
        d="M0 0 C1.32 1.32 2.64 2.64 4 4 C3.67 4.99 3.34 5.98 3 7 C2.67 6.67 2.34 6.34 2 6 C1.95101563 6.69867187 1.90203125 7.39734375 1.8515625 8.1171875 C1.77679688 9.02726563 1.70203125 9.93734375 1.625 10.875 C1.52058594 12.23238281 1.52058594 12.23238281 1.4140625 13.6171875 C1 16 1 16 -1 18 C-1.02684312 15.18743719 -1.04676188 12.37512759 -1.0625 9.5625 C-1.07087891 8.76005859 -1.07925781 7.95761719 -1.08789062 7.13085938 C-1.0965143 5.08704779 -1.0522815 3.04316098 -1 1 C-0.67 0.67 -0.34 0.34 0 0 Z "
        fill="#2C1153" transform="translate(293,581)" />
    <path
        d="M0 0 C0.33 0.99 0.66 1.98 1 3 C-3.30769231 7.92307692 -3.30769231 7.92307692 -6.8125 8.3125 C-7.534375 8.209375 -8.25625 8.10625 -9 8 C-9.66 6.68 -10.32 5.36 -11 4 C-9.33333333 4 -7.66666667 4 -6 4 C-5.67 3.34 -5.34 2.68 -5 2 C-3.68 2 -2.36 2 -1 2 C-0.67 1.34 -0.34 0.68 0 0 Z "
        fill="#FA7DA0" transform="translate(222,358)" />
    <path
        d="M0 0 C0.99 0.33 1.98 0.66 3 1 C2.48050781 1.3403125 1.96101562 1.680625 1.42578125 2.03125 C-5.3732511 6.75664032 -9.30120109 12.14894863 -12 20 C-13.32830615 16.01508155 -12.23204404 14.59951452 -10.5625 10.8125 C-10.08941406 9.72582031 -9.61632812 8.63914062 -9.12890625 7.51953125 C-8.75636719 6.68808594 -8.38382813 5.85664062 -8 5 C-7.34 5 -6.68 5 -6 5 C-5.67 4.34 -5.34 3.68 -5 3 C-2.625 1.3125 -2.625 1.3125 0 0 Z "
        fill="#271550" transform="translate(687,709)" />
    <path
        d="M0 0 C1.958964 0.30852185 3.91715713 0.6219418 5.875 0.9375 C6.96554687 1.11152344 8.05609375 1.28554688 9.1796875 1.46484375 C12 2 12 2 14 3 C14 3.66 14 4.32 14 5 C16.97 5.495 16.97 5.495 20 6 C20 6.33 20 6.66 20 7 C13.26976824 6.49205798 7.13939524 4.85929655 1 2 C0.67 1.34 0.34 0.68 0 0 Z "
        fill="#D0A0E7" transform="translate(421,441)" />
    <path
        d="M0 0 C0.33 1.32 0.66 2.64 1 4 C0.34 4.66 -0.32 5.32 -1 6 C-1.268125 6.61875 -1.53625 7.2375 -1.8125 7.875 C-3.36870466 10.65978728 -5.45565184 12.12521715 -8 14 C-8.66 13.34 -9.32 12.68 -10 12 C-6.7 8.04 -3.4 4.08 0 0 Z "
        fill="#D1A2E9" transform="translate(615,350)" />
    <path
        d="M0 0 C2.79192205 -0.05380578 5.5828141 -0.09357669 8.375 -0.125 C9.1690625 -0.14175781 9.963125 -0.15851562 10.78125 -0.17578125 C12.85492015 -0.19335473 14.92883241 -0.10335168 17 0 C17.66 0.66 18.32 1.32 19 2 C15.77599427 2.95807717 12.85714324 3.13422292 9.5 3.125 C8.09234375 3.12886719 8.09234375 3.12886719 6.65625 3.1328125 C4.2785737 3.01392868 2.27316904 2.67551722 0 2 C0 1.34 0 0.68 0 0 Z "
        fill="#E5DFE9" transform="translate(693,770)" />
    <path
        d="M0 0 C6.6772895 0.60702632 12.70127996 2.77631394 19 5 C17.02 7.97 17.02 7.97 15 11 C15 9.33333333 15 7.66666667 15 6 C10.05 4.35 5.1 2.7 0 1 C0 0.67 0 0.34 0 0 Z "
        fill="#1C0D46" transform="translate(732,762)" />
    <path
        d="M0 0 C0.66 0 1.32 0 2 0 C1.73136414 3.31317555 1.40940132 4.63876354 -1.125 6.875 C-4.9245609 8.3617847 -7.10485546 8.1541169 -11 7 C-12.9375 4.4375 -12.9375 4.4375 -14 2 C-13.34 2 -12.68 2 -12 2 C-11.01 3.485 -11.01 3.485 -10 5 C-6.93443402 5.73343428 -6.93443402 5.73343428 -4 6 C-4 5.34 -4 4.68 -4 4 C-2.68 4 -1.36 4 0 4 C0 2.68 0 1.36 0 0 Z "
        fill="#311958" transform="translate(206,445)" />
    <path
        d="M0 0 C2.31 0.66 4.62 1.32 7 2 C6.34 2.66 5.68 3.32 5 4 C4.34 3.67 3.68 3.34 3 3 C5.40016348 7.94151304 8.52273027 10.04331244 13 13 C12.01 13.33 11.02 13.66 10 14 C8.02734375 12.671875 8.02734375 12.671875 5.9375 10.75 C5.24527344 10.12609375 4.55304688 9.5021875 3.83984375 8.859375 C0.76342449 5.75029736 0 4.4734897 0 0 Z "
        fill="#2F1454" transform="translate(206,373)" />
    <path
        d="M0 0 C-0.33 1.32 -0.66 2.64 -1 4 C-3.31 4.33 -5.62 4.66 -8 5 C-7.67 3.68 -7.34 2.36 -7 1 C-8.65 1 -10.3 1 -12 1 C-12 0.67 -12 0.34 -12 0 C-10.37585622 -0.19477739 -8.75063577 -0.38059458 -7.125 -0.5625 C-6.22007812 -0.66691406 -5.31515625 -0.77132813 -4.3828125 -0.87890625 C-2 -1 -2 -1 0 0 Z "
        fill="#442469" transform="translate(207,445)" />
    <path
        d="M0 0 C1.0625 1.8125 1.0625 1.8125 2 4 C1.67 4.99 1.34 5.98 1 7 C0.01 7 -0.98 7 -2 7 C-2.33 10.96 -2.66 14.92 -3 19 C-3.33 19 -3.66 19 -4 19 C-4.44701413 11.43801103 -4.53574091 6.23664375 0 0 Z "
        fill="#291250" transform="translate(209,353)" />
    <path
        d="M0 0 C0.66 0.33 1.32 0.66 2 1 C3.74451341 6.52429247 4.20612487 11.22850374 4 17 C3.67 17 3.34 17 3 17 C2.87882813 16.43410156 2.75765625 15.86820312 2.6328125 15.28515625 C2.38144531 14.18494141 2.38144531 14.18494141 2.125 13.0625 C1.96257812 12.33160156 1.80015625 11.60070312 1.6328125 10.84765625 C1.17038477 8.79299706 1.17038477 8.79299706 -1 8 C-0.67 5.36 -0.34 2.72 0 0 Z "
        fill="#2C1251" transform="translate(186,380)" />
    <path
        d="M0 0 C0.99 0.66 1.98 1.32 3 2 C2.60167969 2.43570312 2.20335937 2.87140625 1.79296875 3.3203125 C-1.48936831 7.00994686 -3.99399746 10.43077198 -6 15 C-7 12 -7 12 -5.8203125 9.3359375 C-4.98113281 7.87027344 -4.98113281 7.87027344 -4.125 6.375 C-3.57070313 5.39273437 -3.01640625 4.41046875 -2.4453125 3.3984375 C-1 1 -1 1 0 0 Z "
        fill="#D7A6ED" transform="translate(600,288)" />
    <path
        d="M0 0 C0.99 0 1.98 0 3 0 C3.33 2.31 3.66 4.62 4 7 C3.34 7 2.68 7 2 7 C1.67 8.32 1.34 9.64 1 11 C0.30710631 7.27569643 -0.11144596 3.78916254 0 0 Z "
        fill="#462468" transform="translate(242,350)" />
    <path
        d="M0 0 C0.33 0 0.66 0 1 0 C1 2.31 1 4.62 1 7 C1.66 7 2.32 7 3 7 C2.1875 8.9375 2.1875 8.9375 1 11 C0.01 11.33 -0.98 11.66 -2 12 C-1.85904936 10.3745692 -1.71207913 8.74965949 -1.5625 7.125 C-1.48128906 6.22007812 -1.40007812 5.31515625 -1.31640625 4.3828125 C-1 2 -1 2 0 0 Z "
        fill="#391C5D" transform="translate(467,296)" />
    <path
        d="M0 0 C0.66 0.33 1.32 0.66 2 1 C-1.63 4.63 -5.26 8.26 -9 12 C-9 7.28571429 -9 7.28571429 -8 5 C-5.0625 3.375 -5.0625 3.375 -2 2 C-1.34 1.34 -0.68 0.68 0 0 Z "
        fill="#281651" transform="translate(641,292)" />
    <path
        d="M0 0 C0 0.66 0 1.32 0 2 C-1.01320313 2.38091797 -1.01320313 2.38091797 -2.046875 2.76953125 C-3.38492188 3.28580078 -3.38492188 3.28580078 -4.75 3.8125 C-5.63171875 4.14894531 -6.5134375 4.48539063 -7.421875 4.83203125 C-9.93039808 5.96846822 -11.87279005 7.26542927 -14 9 C-14.66 8.67 -15.32 8.34 -16 8 C-11.88135045 4.27992944 -5.79263039 0 0 0 Z "
        fill="#D7A7ED" transform="translate(527,615)" />
    <path
        d="M0 0 C1.37562854 1.28965176 2.70766393 2.62689293 4 4 C4 4.66 4 5.32 4 6 C7.96 6 11.92 6 16 6 C16 6.33 16 6.66 16 7 C13.52076199 7.02685095 11.0418116 7.04676547 8.5625 7.0625 C7.85544922 7.07087891 7.14839844 7.07925781 6.41992188 7.08789062 C4.61306441 7.09653588 2.80612397 7.05220011 1 7 C0 6 0 6 -0.0625 2.9375 C-0.041875 1.968125 -0.02125 0.99875 0 0 Z "
        fill="#9863C7" transform="translate(259,531)" />
    <path
        d="M0 0 C1 3 1 3 -0.14453125 5.4453125 C-0.69496094 6.32960938 -1.24539063 7.21390625 -1.8125 8.125 C-2.35519531 9.01445313 -2.89789063 9.90390625 -3.45703125 10.8203125 C-5 13 -5 13 -7 14 C-6.34 11.03 -5.68 8.06 -5 5 C-4.34 5.33 -3.68 5.66 -3 6 C-2.01 4.02 -1.02 2.04 0 0 Z "
        fill="#27154F" transform="translate(506,762)" />
    <path
        d="M0 0 C0.66 0.33 1.32 0.66 2 1 C-0.37923909 4.83321853 -2.99322444 6.08008671 -7 8 C-8.81554159 9.56102491 -8.81554159 9.56102491 -10 11 C-10.66 10.67 -11.32 10.34 -12 10 C-10.56458334 8.70601853 -9.12658648 7.41489889 -7.6875 6.125 C-6.88699219 5.40570313 -6.08648438 4.68640625 -5.26171875 3.9453125 C-3 2 -3 2 0 0 Z "
        fill="#23114B" transform="translate(623,247)" />
    <path
        d="M0 0 C3.3 0.33 6.6 0.66 10 1 C10 1.66 10 2.32 10 3 C10.66 3.33 11.32 3.66 12 4 C10.56138706 3.91253716 9.12402492 3.80434652 7.6875 3.6875 C6.88699219 3.62949219 6.08648438 3.57148437 5.26171875 3.51171875 C3 3 3 3 0 0 Z "
        fill="#2F1956" transform="translate(558,789)" />
    <path
        d="M0 0 C0.33 0.66 0.66 1.32 1 2 C0.2884375 3.175625 0.2884375 3.175625 -0.4375 4.375 C-2.34098924 7.06372236 -2.34098924 7.06372236 -2 11 C-3.65 11.66 -5.3 12.32 -7 13 C-5.35821735 8.22390502 -2.73453298 4.20617096 0 0 Z "
        fill="#281451" transform="translate(583,549)" />
    <path
        d="M0 0 C-2.90600261 1.25664978 -4.79604584 2 -8 2 C-8 2.66 -8 3.32 -8 4 C-10.64 4.33 -13.28 4.66 -16 5 C-11.53321948 1.09156705 -5.86504904 -1.93756084 0 0 Z "
        fill="#301657" transform="translate(474,251)" />
    <path
        d="M0 0 C0 3.63053243 -1.2278255 4.95750337 -3.5546875 7.63671875 C-5.49136818 9.46347972 -7.46012234 10.27432067 -10 11 C-6.79239749 7.19364503 -3.59253891 3.45436433 0 0 Z "
        fill="#27124D" transform="translate(452,338)" />
    <path
        d="M0 0 C1.65 0.33 3.3 0.66 5 1 C5 1.66 5 2.32 5 3 C3.04072937 4.7143618 1.04119788 6.38405168 -1 8 C-1.66 7.67 -2.32 7.34 -3 7 C-2.01 4.69 -1.02 2.38 0 0 Z "
        fill="#F4F1F5" transform="translate(619,324)" />
    <path
        d="M0 0 C0.33 0.99 0.66 1.98 1 3 C-0.77041602 4.77041602 -2.56802843 6.46056725 -4.4375 8.125 C-5.03433594 8.66382813 -5.63117188 9.20265625 -6.24609375 9.7578125 C-8 11 -8 11 -11 11 C-7.37 7.37 -3.74 3.74 0 0 Z "
        fill="#6652A7" transform="translate(414,320)" />
    <path
        d="M0 0 C0.33 0 0.66 0 1 0 C1 4.29 1 8.58 1 13 C0.01 12.34 -0.98 11.68 -2 11 C-2.29296875 8.8359375 -2.29296875 8.8359375 -2.1875 6.375 C-2.16042969 5.55773437 -2.13335938 4.74046875 -2.10546875 3.8984375 C-2.05326172 2.95871094 -2.05326172 2.95871094 -2 2 C-1.34 2 -0.68 2 0 2 C0 1.34 0 0.68 0 0 Z "
        fill="#472A6C" transform="translate(572,358)" />
    <path
        d="M0 0 C0.66 1.32 1.32 2.64 2 4 C0.68 5.32 -0.64 6.64 -2 8 C-2.33 7.34 -2.66 6.68 -3 6 C-3.99 6 -4.98 6 -6 6 C-4.02 4.02 -2.04 2.04 0 0 Z "
        fill="#291154" transform="translate(216,345)" />
    <path
        d="M0 0 C1.18771723 3.42943519 0.80226223 5.37784675 -0.4375 8.75 C-0.86869141 9.94882813 -0.86869141 9.94882813 -1.30859375 11.171875 C-1.65083984 12.07679688 -1.65083984 12.07679688 -2 13 C-2.33 13 -2.66 13 -3 13 C-3.125 5.25 -3.125 5.25 -2 3 C-1.34 3 -0.68 3 0 3 C0 2.01 0 1.02 0 0 Z "
        fill="#D7A9EE" transform="translate(524,207)" />
    <path
        d="M0 0 C0.66 0.33 1.32 0.66 2 1 C2 1.99 2 2.98 2 4 C1.01 4.495 1.01 4.495 0 5 C0.99 6.32 1.98 7.64 3 9 C2.67 9.66 2.34 10.32 2 11 C-3 5.25 -3 5.25 -3 3 C-2.34 3 -1.68 3 -1 3 C-0.67 2.01 -0.34 1.02 0 0 Z "
        fill="#D4A4EB" transform="translate(355,426)" />
    <path
        d="M0 0 C1.40907283 2.81814566 0.50872691 4.17277204 -0.4375 7.125 C-0.72496094 8.03507813 -1.01242187 8.94515625 -1.30859375 9.8828125 C-1.53675781 10.58148438 -1.76492188 11.28015625 -2 12 C-2.68707555 9.50935112 -3 7.62113708 -3 5 C-3.66 4.67 -4.32 4.34 -5 4 C-3.35 2.68 -1.7 1.36 0 0 Z "
        fill="#E2B3F4" transform="translate(528,194)" />
    <path
        d="M0 0 C0.33 0.66 0.66 1.32 1 2 C1.66 2.33 2.32 2.66 3 3 C0.03 4.32 -2.94 5.64 -6 7 C-5 3 -5 3 -2.4375 1.25 C-1.2309375 0.63125 -1.2309375 0.63125 0 0 Z "
        fill="#48256B" transform="translate(272,382)" />
    <path d="M0 0 C0.99 0 1.98 0 3 0 C3 2.97 3 5.94 3 9 C2.01 9.33 1.02 9.66 0 10 C0 6.7 0 3.4 0 0 Z " fill="#D31427"
        transform="translate(238,356)" />
    <path d="M0 0 C1.98 0.66 3.96 1.32 6 2 C6 2.99 6 3.98 6 5 C4.35 5.33 2.7 5.66 1 6 C0.67 4.02 0.34 2.04 0 0 Z "
        fill="#F3EFF5" transform="translate(402,447)" />
    <path
        d="M0 0 C0.66 0.33 1.32 0.66 2 1 C1.67 1.99 1.34 2.98 1 4 C1.99 5.485 1.99 5.485 3 7 C-1.75 6.125 -1.75 6.125 -4 5 C-4 4.34 -4 3.68 -4 3 C-2 1.375 -2 1.375 0 0 Z "
        fill="#D9A8ED" transform="translate(407,364)" />
    <path
        d="M0 0 C2.97 0 5.94 0 9 0 C5.99559979 2.00293347 4.29006055 2.49271626 0.8125 3.125 C-0.53908203 3.37636719 -0.53908203 3.37636719 -1.91796875 3.6328125 C-2.60503906 3.75398438 -3.29210937 3.87515625 -4 4 C-2.68 3.34 -1.36 2.68 0 2 C0 1.34 0 0.68 0 0 Z "
        fill="#261350" transform="translate(697,331)" />
    <path
        d="M0 0 C0.33 0.66 0.66 1.32 1 2 C-1.6234008 4.91488977 -4.71816394 6.88503898 -8 9 C-8.66 8.67 -9.32 8.34 -10 8 C-6.7 5.36 -3.4 2.72 0 0 Z "
        fill="#DDADF2" transform="translate(329,293)" />
    <path d="M0 0 C0.33 1.32 0.66 2.64 1 4 C-3.5 7 -3.5 7 -8 10 C-6.34908222 5.70761377 -3.26245434 3.1206085 0 0 Z "
        fill="#26104D" transform="translate(202,314)" />
    <path
        d="M0 0 C0.66 0.99 1.32 1.98 2 3 C-0.3125 5.5 -0.3125 5.5 -3 8 C-3.99 8 -4.98 8 -6 8 C-4.02 5.36 -2.04 2.72 0 0 Z "
        fill="#D9A9EE" transform="translate(607,278)" />
    <path
        d="M0 0 C0.66 0.33 1.32 0.66 2 1 C-3.75 5 -3.75 5 -6 5 C-6 5.99 -6 6.98 -6 8 C-6.99 7.67 -7.98 7.34 -9 7 C-3.51752022 1.21293801 -3.51752022 1.21293801 0 0 Z "
        fill="#DAAAED" transform="translate(362,271)" />
    <path
        d="M0 0 C0 3.3 0 6.6 0 10 C-3 7 -3 7 -3.1875 3.8125 C-3.125625 2.884375 -3.06375 1.95625 -3 1 C-1 0 -1 0 0 0 Z "
        fill="#533472" transform="translate(160,246)" />
    <path
        d="M0 0 C2.64 0 5.28 0 8 0 C7.34 1.65 6.68 3.3 6 5 C5.34 5 4.68 5 4 5 C4 3.68 4 2.36 4 1 C2.68 0.67 1.36 0.34 0 0 Z "
        fill="#3A225E" transform="translate(858,690)" />
    <path
        d="M0 0 C0.556875 0.28875 1.11375 0.5775 1.6875 0.875 C4.08494645 2.0413253 6.51596939 3.0339881 9 4 C8.67 5.32 8.34 6.64 8 8 C6.66372225 6.85760183 5.33104612 5.71098945 4 4.5625 C3.2575 3.92441406 2.515 3.28632812 1.75 2.62890625 C1.1725 2.09136719 0.595 1.55382812 0 1 C0 0.67 0 0.34 0 0 Z "
        fill="#E1B0F3" transform="translate(284,609)" />
    <path
        d="M0 0 C0.66 0.33 1.32 0.66 2 1 C-0.31 3.64 -2.62 6.28 -5 9 C-5 6.29745539 -4.96569331 4.49470772 -4 2 C-2.0625 0.6875 -2.0625 0.6875 0 0 Z "
        fill="#220F4C" transform="translate(263,391)" />
    <path d="M0 0 C-0.33 0.99 -0.66 1.98 -1 3 C-3.31 3.33 -5.62 3.66 -8 4 C-5.57415142 1.34311822 -3.76063134 0 0 0 Z "
        fill="#D3A4EB" transform="translate(473,222)" />
    <path
        d="M0 0 C1.32 1.32 2.64 2.64 4 4 C3.67 4.99 3.34 5.98 3 7 C2.34 6.01 1.68 5.02 1 4 C0.01 4.495 0.01 4.495 -1 5 C-0.67 3.35 -0.34 1.7 0 0 Z "
        fill="#381F5D" transform="translate(293,581)" />
    <path d="M0 0 C0.99 0 1.98 0 3 0 C3 2.31 3 4.62 3 7 C2.01 7 1.02 7 0 7 C0 4.69 0 2.38 0 0 Z " fill="#BE90DE"
        transform="translate(628,473)" />
    <path
        d="M0 0 C0.66 0.33 1.32 0.66 2 1 C-0.3125 3.5 -0.3125 3.5 -3 6 C-3.99 6 -4.98 6 -6 6 C-4.02 4.02 -2.04 2.04 0 0 Z "
        fill="#322470" transform="translate(237,372)" />
    <path
        d="M0 0 C0.99 0.33 1.98 0.66 3 1 C1.19587357 4.26460973 0.16605307 5.88929795 -3 8 C-1.125 2.25 -1.125 2.25 0 0 Z "
        fill="#523F95" transform="translate(463,307)" />
    <path d="M0 0 C3.375 -0.125 3.375 -0.125 7 0 C9 2 9 2 9 4 C6.03 3.01 3.06 2.02 0 1 C0 0.67 0 0.34 0 0 Z "
        fill="#46296A" transform="translate(759,285)" />
</svg>