<?xml version="1.0" encoding="utf-8"?>
<svg xmlns="http://www.w3.org/2000/svg" viewBox="-449.9052 -287.2811 624.8173 450.0408" width="624.817px" height="450.041px" preserveAspectRatio="none"><g transform="matrix(1, 0, 0, 1, 80.44744110107422, 56.69887924194336)" id="object-26"><path d="M -497 -343.98 C -492.45 -342.47 -490.7 -339.36 -488.57 -335.19 C -487.92 -333.69 -487.92 -333.69 -487.26 -332.15 C -486.53 -330.47 -486.53 -330.47 -485.78 -328.76 C -485.28 -327.57 -484.77 -326.39 -484.25 -325.17 C -483.17 -322.71 -482.09 -320.26 -481.01 -317.81 C -480.49 -316.63 -479.97 -315.44 -479.44 -314.23 C -471.91 -297.27 -462.11 -282.03 -451.73 -266.7 C -446.84 -259.39 -442.51 -251.74 -438.2 -244.09 C -437.41 -242.71 -436.61 -241.33 -435.79 -239.97 C -433 -235.29 -433 -235.29 -433 -231.98 C -431.49 -232.2 -431.49 -232.2 -429.95 -232.42 C -414.05 -234.57 -395.5 -236.45 -380.1 -230.95 C -376.09 -229.68 -372.98 -228.98 -369.08 -230.95 C -364.31 -233.99 -359.94 -237.57 -355.5 -241.07 C -322.35 -266.34 -282.69 -283.35 -244.06 -298.2 C -243.1 -298.57 -242.15 -298.94 -241.16 -299.32 C -236.42 -301.14 -231.68 -302.96 -226.93 -304.76 C -203.63 -313.62 -181.4 -323.79 -160.6 -337.6 C -151.43 -343.68 -151.43 -343.68 -146 -342.98 C -143.62 -341.98 -143.62 -341.98 -142 -339.98 C -141.37 -332.71 -143.13 -326.12 -144.93 -319.11 C -145.25 -317.88 -145.56 -316.65 -145.88 -315.38 C -157.61 -270.59 -178.37 -228.63 -208 -192.98 C -208.81 -191.98 -209.62 -190.99 -210.46 -189.96 C -222.5 -175.37 -235.97 -161.5 -251 -149.98 C -253.06 -148.3 -255.12 -146.61 -257.18 -144.92 C -258.79 -143.61 -260.39 -142.29 -262 -140.98 C -258.17 -137.81 -254.15 -135.06 -250 -132.36 C -239.74 -125.6 -230.17 -118.27 -221.14 -109.94 C -219.4 -108.35 -217.65 -106.87 -215.81 -105.42 C -212.92 -102.92 -210.5 -100.3 -208.04 -97.388 C -206.53 -95.617 -205 -93.87 -203.46 -92.138 C -198.26 -86.268 -193.59 -80.22 -189.37 -73.607 C -188.95 -72.954 -188.52 -72.3 -188.08 -71.627 C -185.49 -67.445 -184.26 -64 -184 -58.982 C -185.48 -56.292 -187.04 -55.965 -189.93 -54.928 C -194.92 -53.558 -199.91 -53.641 -205.06 -53.67 C -206.11 -53.675 -207.17 -53.681 -208.25 -53.687 C -234.73 -54.087 -258.45 -61.677 -283 -70.982 C -282.78 -70.027 -282.56 -69.072 -282.34 -68.088 C -278.61 -51.048 -278.61 -51.048 -280 -44.982 C -282.78 -42.189 -283.73 -41.987 -287.81 -41.92 C -296.9 -43.263 -305.9 -47.829 -314 -51.982 C -310.73 -37.901 -302.47 -27.474 -293 -16.982 C -292.1 -15.981 -292.1 -15.981 -291.19 -14.959 C -278.58 -1.591 -261.59 7.288 -245.99 16.608 C -230.59 25.832 -217.01 35.655 -204 48.018 C -203.03 48.888 -203.03 48.888 -202.04 49.776 C -193.73 57.511 -187.52 67.448 -182.43 77.518 C -182.1 78.176 -181.76 78.834 -181.42 79.512 C -179.57 83.332 -178.47 86.799 -178 91.018 C -158.08 83.354 -141.67 74.801 -126 60.018 C -125.32 59.405 -124.64 58.793 -123.94 58.162 C -108.4 43.556 -97.568 22.403 -91.998 2.018 C -91.688 0.916 -91.388 -0.187 -91.068 -1.322 C -81.978 -36.041 -91.718 -67.448 -103.64 -99.98 C -107.39 -110.23 -110.84 -120.26 -113 -130.98 C -113.14 -131.68 -113.29 -132.38 -113.44 -133.09 C -120.82 -168.94 -114.94 -208.18 -95.158 -239.25 C -86.308 -252.44 -75.778 -262.68 -62.998 -271.98 C -62.228 -272.55 -61.458 -273.12 -60.668 -273.71 C -47.968 -282.24 -30.228 -287.63 -14.998 -284.98 C -8.758 -282.28 -5.008 -278.53 -1.678 -272.67 C 0.132 -265.59 -0.658 -259.81 -4.208 -253.39 C -9.638 -246.07 -18.638 -241.96 -26.358 -237.41 C -47.168 -225.03 -59.288 -209.7 -68.998 -187.98 C -65.218 -190.78 -61.458 -193.59 -57.798 -196.55 C -50.198 -202.68 -42.498 -208.13 -33.998 -212.98 C -32.868 -213.64 -31.748 -214.29 -30.588 -214.97 C -20.208 -220.86 -9.248 -225.06 2.002 -228.98 C 3.092 -229.36 3.092 -229.36 4.202 -229.75 C 26.703 -237.47 57.576 -243.96 80.201 -233.51 C 87.466 -229.56 91.394 -224.86 94.006 -216.98 C 94.896 -210.79 94.78 -205.17 91.006 -199.98 C 85.029 -193.35 78.694 -190.31 69.724 -189.8 C 66.044 -189.79 62.373 -189.88 58.694 -189.98 C 22.792 -190.55 -12.778 -181.09 -39.238 -155.71 C -50.308 -144.77 -59.948 -132.41 -60.498 -116.23 C -60.178 -106.71 -57.388 -98 -54.308 -89.068 C -39.308 -45.575 -41.378 -1.306 -61.538 40.385 C -69.698 56.692 -79.818 70.513 -91.998 84.018 C -92.668 84.767 -93.348 85.516 -94.038 86.287 C -111.31 104.398 -111.31 104.398 -119.08 105.245 C -119.86 105.234 -120.64 105.224 -121.44 105.213 C -122.29 105.207 -123.14 105.2 -124.01 105.194 C -124.89 105.177 -125.78 105.16 -126.68 105.143 C -127.58 105.134 -128.47 105.125 -129.39 105.115 C -131.59 105.092 -133.79 105.059 -136 105.018 C -132.44 102.091 -128.77 99.499 -124.93 96.955 C -118.63 92.665 -113 87.804 -107.53 82.502 C -105.95 80.972 -104.35 79.464 -102.74 77.955 C -77.158 53.533 -63.568 21.405 -57.368 -12.916 C -57.068 -14.559 -56.738 -16.195 -56.398 -17.83 C -53.038 -43.956 -59.668 -67.757 -68.108 -92.199 C -73.458 -107.75 -74.288 -122.98 -66.998 -137.98 C -62.148 -146.96 -56.098 -154.66 -48.998 -161.98 C -48.468 -162.57 -47.938 -163.16 -47.398 -163.76 C -26.138 -186.76 8.432 -199.83 39.227 -201.88 C 42.712 -202.01 46.192 -201.99 49.678 -201.96 C 50.364 -201.95 51.049 -201.94 51.756 -201.94 C 55.22 -201.9 58.681 -201.84 62.144 -201.73 C 69.563 -201.6 74.822 -201.66 81.006 -205.98 C 82.617 -210.17 82.252 -213.1 80.631 -217.17 C 77.803 -221.93 74.242 -223.52 69.006 -224.98 C 64.263 -225.49 59.584 -225.45 54.819 -225.36 C 53.593 -225.36 52.368 -225.35 51.106 -225.35 C 23.699 -225.09 -3.048 -217.07 -26.998 -203.98 C -28.058 -203.41 -29.128 -202.83 -30.228 -202.24 C -50.718 -190.75 -67.678 -174.21 -80.998 -154.98 C -82.998 -155.98 -82.998 -155.98 -83.608 -157.64 C -87.088 -178.72 -79.258 -198.64 -67.998 -215.98 C -65.168 -219.83 -62.178 -223.44 -58.998 -226.98 C -58.378 -227.68 -57.768 -228.37 -57.138 -229.09 C -48.318 -238.51 -36.968 -245.28 -25.768 -251.5 C -20.408 -254.52 -16.448 -257.79 -12.998 -262.98 C -12.648 -266.2 -12.608 -268.25 -14.128 -271.14 C -16.788 -273.76 -18.548 -273.55 -22.248 -273.55 C -41.468 -272.95 -59.468 -262.18 -72.428 -248.48 C -85.928 -232.88 -94.648 -215.81 -100 -195.98 C -100.19 -195.29 -100.39 -194.59 -100.59 -193.88 C -106.12 -174.02 -106.08 -151.95 -101 -131.98 C -100.78 -131.11 -100.57 -130.23 -100.34 -129.33 C -96.778 -115.05 -92.108 -101.27 -86.898 -87.523 C -72.518 -49.516 -71.548 -10.314 -88.018 27.316 C -103.12 60.097 -129.13 81.557 -161 97.018 C -163.29 98.137 -165.58 99.263 -167.87 100.393 C -169.29 101.085 -169.29 101.085 -170.74 101.791 C -173.11 102.94 -173.11 102.94 -175 105.018 C -176.85 105.266 -176.85 105.266 -179.16 105.264 C -180.04 105.268 -180.92 105.272 -181.82 105.276 C -182.79 105.27 -183.77 105.264 -184.77 105.258 C -185.79 105.26 -186.82 105.262 -187.88 105.263 C -191.34 105.267 -194.8 105.256 -198.26 105.245 C -200.74 105.244 -203.21 105.245 -205.68 105.246 C -211.02 105.246 -216.35 105.24 -221.69 105.229 C -229.41 105.213 -237.12 105.208 -244.84 105.205 C -257.35 105.201 -269.87 105.188 -282.39 105.169 C -294.55 105.15 -306.71 105.136 -318.87 105.128 C -319.99 105.127 -319.99 105.127 -321.14 105.126 C -324.9 105.123 -328.65 105.121 -332.41 105.118 C -363.61 105.098 -394.8 105.062 -426 105.018 C -426.14 104.273 -426.28 103.528 -426.42 102.76 C -427.07 99.348 -427.72 95.937 -428.37 92.526 C -428.7 90.768 -428.7 90.768 -429.04 88.974 C -430.43 81.712 -432.04 74.59 -433.93 67.443 C -442.26 35.084 -437.35 1.809 -434 -30.982 C -435.12 -30.945 -435.12 -30.945 -436.26 -30.908 C -443.25 -30.776 -449.48 -31.369 -456.25 -33.107 C -457.15 -33.332 -458.05 -33.556 -458.97 -33.787 C -478.42 -38.799 -499.46 -46.4 -510.56 -64.232 C -515.11 -72.276 -515.34 -79.549 -515.47 -88.576 C -515.64 -94.352 -516.48 -99.24 -518.28 -104.72 C -524.3 -123.79 -519.31 -146.09 -510.82 -163.54 C -509.37 -167.85 -510.75 -170.45 -512.63 -174.49 C -513.12 -175.46 -513.12 -175.46 -513.62 -176.45 C -518.76 -186.61 -522.29 -196.94 -525 -207.98 C -525.21 -208.84 -525.42 -209.69 -525.64 -210.57 C -531.66 -236.13 -532.4 -267.64 -525 -292.98 C -524.79 -293.73 -524.58 -294.48 -524.36 -295.25 C -510.43 -343.98 -510.43 -343.98 -497 -343.98 Z" fill="#C798E4" id="object-0"/><path d="M -497 -343.98 C -492.45 -342.47 -490.7 -339.36 -488.57 -335.19 C -487.92 -333.69 -487.92 -333.69 -487.26 -332.15 C -486.53 -330.47 -486.53 -330.47 -485.78 -328.76 C -485.28 -327.57 -484.77 -326.39 -484.25 -325.17 C -483.17 -322.71 -482.09 -320.26 -481.01 -317.81 C -480.49 -316.63 -479.97 -315.44 -479.44 -314.23 C -471.91 -297.27 -462.11 -282.03 -451.73 -266.7 C -446.84 -259.39 -442.51 -251.74 -438.2 -244.09 C -437.41 -242.71 -436.61 -241.33 -435.79 -239.97 C -433 -235.29 -433 -235.29 -433 -231.98 C -431.49 -232.2 -431.49 -232.2 -429.95 -232.42 C -414.05 -234.57 -395.5 -236.45 -380.1 -230.95 C -376.09 -229.68 -372.98 -228.98 -369.08 -230.95 C -364.31 -233.99 -359.94 -237.57 -355.5 -241.07 C -322.35 -266.34 -282.69 -283.35 -244.06 -298.2 C -243.1 -298.57 -242.15 -298.94 -241.16 -299.32 C -236.42 -301.14 -231.68 -302.96 -226.93 -304.76 C -203.63 -313.62 -181.4 -323.79 -160.6 -337.6 C -151.43 -343.68 -151.43 -343.68 -146 -342.98 C -143.62 -341.98 -143.62 -341.98 -142 -339.98 C -141.37 -332.71 -143.13 -326.12 -144.93 -319.11 C -145.25 -317.88 -145.56 -316.65 -145.88 -315.38 C -157.61 -270.59 -178.37 -228.63 -208 -192.98 C -208.81 -191.98 -209.62 -190.99 -210.46 -189.96 C -222.5 -175.37 -235.97 -161.5 -251 -149.98 C -253.06 -148.3 -255.12 -146.61 -257.18 -144.92 C -258.79 -143.61 -260.39 -142.29 -262 -140.98 C -258.17 -137.81 -254.15 -135.06 -250 -132.36 C -239.74 -125.6 -230.17 -118.27 -221.14 -109.94 C -219.4 -108.35 -217.65 -106.87 -215.81 -105.42 C -212.92 -102.92 -210.5 -100.3 -208.04 -97.388 C -206.53 -95.617 -205 -93.87 -203.46 -92.138 C -198.26 -86.268 -193.59 -80.22 -189.37 -73.607 C -188.95 -72.954 -188.52 -72.3 -188.08 -71.627 C -185.49 -67.445 -184.26 -64 -184 -58.982 C -185.48 -56.292 -187.04 -55.965 -189.93 -54.928 C -194.92 -53.558 -199.91 -53.641 -205.06 -53.67 C -206.11 -53.675 -207.17 -53.681 -208.25 -53.687 C -234.73 -54.087 -258.45 -61.677 -283 -70.982 C -282.78 -70.027 -282.56 -69.072 -282.34 -68.088 C -278.61 -51.048 -278.61 -51.048 -280 -44.982 C -282.78 -42.189 -283.73 -41.987 -287.81 -41.92 C -296.9 -43.263 -305.9 -47.829 -314 -51.982 C -310.73 -37.901 -302.47 -27.474 -293 -16.982 C -292.1 -15.981 -292.1 -15.981 -291.19 -14.959 C -278.58 -1.591 -261.59 7.288 -245.99 16.608 C -230.59 25.832 -217.01 35.655 -204 48.018 C -203.03 48.888 -203.03 48.888 -202.04 49.776 C -193.73 57.511 -187.52 67.448 -182.43 77.518 C -182.1 78.176 -181.76 78.834 -181.42 79.512 C -179.57 83.332 -178.47 86.799 -178 91.018 C -158.08 83.354 -141.67 74.801 -126 60.018 C -125.32 59.405 -124.64 58.793 -123.94 58.162 C -108.4 43.556 -97.568 22.403 -91.998 2.018 C -91.688 0.916 -91.388 -0.187 -91.068 -1.322 C -81.978 -36.041 -91.718 -67.448 -103.64 -99.98 C -107.39 -110.23 -110.84 -120.26 -113 -130.98 C -113.14 -131.68 -113.29 -132.38 -113.44 -133.09 C -120.82 -168.94 -114.94 -208.18 -95.158 -239.25 C -86.308 -252.44 -75.778 -262.68 -62.998 -271.98 C -62.228 -272.55 -61.458 -273.12 -60.668 -273.71 C -47.968 -282.24 -30.228 -287.63 -14.998 -284.98 C -8.758 -282.28 -5.008 -278.53 -1.678 -272.67 C 0.132 -265.59 -0.658 -259.81 -4.208 -253.39 C -9.638 -246.07 -18.638 -241.96 -26.358 -237.41 C -47.168 -225.03 -59.288 -209.7 -68.998 -187.98 C -65.218 -190.78 -61.458 -193.59 -57.798 -196.55 C -50.198 -202.68 -42.498 -208.13 -33.998 -212.98 C -32.868 -213.64 -31.748 -214.29 -30.588 -214.97 C -20.208 -220.86 -9.248 -225.06 2.002 -228.98 C 3.092 -229.36 3.092 -229.36 4.202 -229.75 C 26.703 -237.47 57.576 -243.96 80.201 -233.51 C 87.466 -229.56 91.394 -224.86 94.006 -216.98 C 94.896 -210.79 94.78 -205.17 91.006 -199.98 C 85.029 -193.35 78.694 -190.31 69.724 -189.8 C 66.044 -189.79 62.373 -189.88 58.694 -189.98 C 22.792 -190.55 -12.778 -181.09 -39.238 -155.71 C -50.308 -144.77 -59.948 -132.41 -60.498 -116.23 C -60.178 -106.71 -57.388 -98 -54.308 -89.068 C -39.308 -45.575 -41.378 -1.306 -61.538 40.385 C -69.698 56.692 -79.818 70.513 -91.998 84.018 C -92.668 84.767 -93.348 85.516 -94.038 86.287 C -111.31 104.398 -111.31 104.398 -119.08 105.245 C -119.86 105.234 -120.64 105.224 -121.44 105.213 C -122.29 105.207 -123.14 105.2 -124.01 105.194 C -124.89 105.177 -125.78 105.16 -126.68 105.143 C -127.58 105.134 -128.47 105.125 -129.39 105.115 C -131.59 105.092 -133.79 105.059 -136 105.018 C -132.44 102.091 -128.77 99.499 -124.93 96.955 C -118.63 92.665 -113 87.804 -107.53 82.502 C -105.95 80.972 -104.35 79.464 -102.74 77.955 C -77.158 53.533 -63.568 21.405 -57.368 -12.916 C -57.068 -14.559 -56.738 -16.195 -56.398 -17.83 C -53.038 -43.956 -59.668 -67.757 -68.108 -92.199 C -73.458 -107.75 -74.288 -122.98 -66.998 -137.98 C -62.148 -146.96 -56.098 -154.66 -48.998 -161.98 C -48.468 -162.57 -47.938 -163.16 -47.398 -163.76 C -26.138 -186.76 8.432 -199.83 39.227 -201.88 C 42.712 -202.01 46.192 -201.99 49.678 -201.96 C 50.364 -201.95 51.049 -201.94 51.756 -201.94 C 55.22 -201.9 58.681 -201.84 62.144 -201.73 C 69.563 -201.6 74.822 -201.66 81.006 -205.98 C 82.617 -210.17 82.252 -213.1 80.631 -217.17 C 77.803 -221.93 74.242 -223.52 69.006 -224.98 C 64.263 -225.49 59.584 -225.45 54.819 -225.36 C 53.593 -225.36 52.368 -225.35 51.106 -225.35 C 23.699 -225.09 -3.048 -217.07 -26.998 -203.98 C -28.058 -203.41 -29.128 -202.83 -30.228 -202.24 C -50.718 -190.75 -67.678 -174.21 -80.998 -154.98 C -82.998 -155.98 -82.998 -155.98 -83.608 -157.64 C -87.088 -178.72 -79.258 -198.64 -67.998 -215.98 C -65.168 -219.83 -62.178 -223.44 -58.998 -226.98 C -58.378 -227.68 -57.768 -228.37 -57.138 -229.09 C -48.318 -238.51 -36.968 -245.28 -25.768 -251.5 C -20.408 -254.52 -16.448 -257.79 -12.998 -262.98 C -12.648 -266.2 -12.608 -268.25 -14.128 -271.14 C -16.788 -273.76 -18.548 -273.55 -22.248 -273.55 C -41.468 -272.95 -59.468 -262.18 -72.428 -248.48 C -85.928 -232.88 -94.648 -215.81 -100 -195.98 C -100.19 -195.29 -100.39 -194.59 -100.59 -193.88 C -106.12 -174.02 -106.08 -151.95 -101 -131.98 C -100.78 -131.11 -100.57 -130.23 -100.34 -129.33 C -96.778 -115.05 -92.108 -101.27 -86.898 -87.523 C -72.518 -49.516 -71.548 -10.314 -88.018 27.316 C -103.12 60.097 -129.13 81.557 -161 97.018 C -163.29 98.137 -165.58 99.263 -167.87 100.393 C -169.29 101.085 -169.29 101.085 -170.74 101.791 C -173.11 102.94 -173.11 102.94 -175 105.018 C -177.82 105.213 -177.82 105.213 -181.12 105.143 C -182.22 105.125 -183.31 105.107 -184.44 105.088 C -185.71 105.053 -185.71 105.053 -187 105.018 C -187.19 103.976 -187.39 102.935 -187.59 101.862 C -193.28 73.775 -210.8 53.929 -234 38.018 C -241.22 33.398 -248.62 29.083 -256.02 24.758 C -278.8 11.438 -301.06 -3.502 -315.75 -25.982 C -316.11 -26.54 -316.48 -27.097 -316.85 -27.671 C -322.6 -36.77 -324.87 -45.269 -326.15 -55.898 C -327.1 -62.158 -328.75 -65.707 -333.28 -70.177 C -340.47 -77.742 -344 -91.754 -344 -101.98 C -343.34 -101.98 -342.68 -101.98 -342 -101.98 C -340.84 -100.52 -340.84 -100.52 -339.56 -98.467 C -339.08 -97.716 -338.6 -96.965 -338.11 -96.191 C -337.6 -95.379 -337.09 -94.568 -336.56 -93.732 C -325.29 -76.411 -311.27 -63.006 -292 -54.982 C -292.17 -55.753 -292.34 -56.524 -292.52 -57.318 C -295.01 -68.539 -297.5 -79.761 -300 -90.982 C -296.09 -90.348 -292.83 -89.159 -289.23 -87.541 C -288.1 -87.043 -286.98 -86.545 -285.82 -86.033 C -284.62 -85.5 -283.42 -84.968 -282.18 -84.42 C -258.61 -74.106 -234.99 -65.708 -209 -65.92 C -207.93 -65.924 -206.87 -65.929 -205.78 -65.933 C -203.19 -65.945 -200.59 -65.961 -198 -65.982 C -219.48 -94.463 -243.34 -116.27 -275 -132.98 C -275.6 -133.31 -276.21 -133.64 -276.84 -133.97 C -290.86 -141.39 -306.09 -146.01 -321.1 -150.99 C -324 -151.98 -324 -151.98 -326 -152.98 C -325.67 -153.97 -325.34 -154.96 -325 -155.98 C -324.34 -155.98 -323.68 -155.98 -323 -155.98 C -329.25 -164.31 -335.68 -172.61 -344 -178.98 C -342.54 -189.96 -331.38 -199.22 -324 -206.98 C -323.41 -207.62 -322.83 -208.25 -322.23 -208.91 C -292.19 -240.69 -243.97 -260.47 -203.18 -273.11 C -202.54 -273.31 -201.9 -273.5 -201.24 -273.71 C -190.61 -276.98 -190.61 -276.98 -187 -276.98 C -187.72 -249.47 -206.04 -225.41 -223.5 -205.68 C -224.51 -204.53 -225.51 -203.38 -226.5 -202.21 C -231.46 -196.42 -236.79 -191.01 -242.17 -185.62 C -243.73 -184.06 -245.29 -182.49 -246.84 -180.91 C -253.23 -174.49 -259.86 -168.59 -267 -162.98 C -268.35 -161.89 -269.71 -160.79 -271.06 -159.7 C -272.23 -158.77 -273.39 -157.84 -274.56 -156.92 C -275.16 -156.44 -275.76 -155.95 -276.38 -155.45 C -280.76 -151.98 -280.76 -151.98 -283 -151.98 C -283 -151.32 -283 -150.66 -283 -149.98 C -277.61 -147.95 -277.61 -147.95 -272 -147.98 C -269.22 -149.71 -266.79 -151.79 -264.31 -153.92 C -263.6 -154.51 -262.89 -155.1 -262.16 -155.72 C -257.41 -159.71 -252.74 -163.8 -248.16 -168 C -246.08 -169.91 -243.95 -171.76 -241.81 -173.61 C -235.34 -179.26 -229.53 -185.41 -224 -191.98 C -223.55 -192.51 -223.1 -193.04 -222.65 -193.58 C -207.61 -211.43 -194.89 -230.34 -184 -250.98 C -183.27 -252.36 -183.27 -252.36 -182.52 -253.76 C -170.96 -275.86 -163.43 -299.69 -158 -323.98 C -159.08 -323.22 -159.08 -323.22 -160.18 -322.44 C -181.98 -307.67 -206.75 -299.09 -231.23 -289.91 C -280.98 -271.22 -326.51 -248.14 -369 -215.98 C -370.44 -214.89 -371.88 -213.8 -373.33 -212.72 C -373.96 -212.24 -374.59 -211.76 -375.24 -211.27 C -379.17 -208.38 -381.14 -207.77 -386 -207.98 C -385.48 -212.41 -384.37 -215.24 -382 -218.98 C -398.56 -222.54 -416.66 -222.59 -433 -217.98 C -433.7 -217.78 -434.4 -217.59 -435.13 -217.38 C -452.06 -212.48 -465.64 -205.63 -478 -192.98 C -478.63 -192.37 -479.26 -191.76 -479.91 -191.13 C -488.69 -182.01 -495.08 -169.63 -500.25 -158.17 C -500.7 -157.19 -500.7 -157.19 -501.15 -156.2 C -502.78 -152.39 -503.36 -149.92 -502 -145.98 C -501.15 -144.15 -501.15 -144.15 -500.12 -142.42 C -492.24 -127.05 -494.56 -111.95 -499.28 -96.112 C -499.96 -94.082 -500.76 -92.17 -501.64 -90.221 C -503.99 -84.61 -503.78 -78.796 -502.06 -72.982 C -496.42 -60.3 -484.16 -53.909 -471.82 -49.141 C -448.68 -40.916 -422.69 -41.025 -399 -46.982 C -397.41 -47.048 -395.83 -47.068 -394.25 -47.045 C -393.45 -47.036 -392.65 -47.027 -391.82 -47.017 C -390.92 -47 -390.92 -47 -390 -46.982 C -391.43 -42.677 -394 -41.751 -397.84 -39.541 C -405.77 -35.627 -414.21 -33.031 -423 -31.982 C -422.97 -31.334 -422.95 -30.685 -422.93 -30.017 C -422.65 -15.182 -424.06 -0.226 -426.12 14.455 C -429.22 37.957 -425.76 60.22 -411.93 79.967 C -406.51 86.923 -401.04 91.252 -394 97.018 C -394 85.798 -394 74.578 -394 63.018 C -393.01 63.018 -392.02 63.018 -391 63.018 C -388 68.623 -385.93 73.93 -384.37 80.08 C -384.17 80.825 -383.96 81.569 -383.75 82.336 C -381.78 89.922 -381.05 97.077 -380 105.018 C -395.18 105.018 -410.36 105.018 -426 105.018 C -428.06 93.955 -428.06 93.955 -428.77 90.135 C -429.96 83.895 -431.28 77.732 -432.89 71.584 C -441.71 37.359 -437.55 3.803 -434 -30.982 C -435.12 -30.945 -435.12 -30.945 -436.26 -30.908 C -443.25 -30.776 -449.48 -31.369 -456.25 -33.107 C -457.15 -33.332 -458.05 -33.556 -458.97 -33.787 C -478.42 -38.799 -499.46 -46.4 -510.56 -64.232 C -515.11 -72.276 -515.34 -79.549 -515.47 -88.576 C -515.64 -94.352 -516.48 -99.24 -518.28 -104.72 C -524.3 -123.79 -519.31 -146.09 -510.82 -163.54 C -509.37 -167.85 -510.75 -170.45 -512.63 -174.49 C -513.12 -175.46 -513.12 -175.46 -513.62 -176.45 C -518.76 -186.61 -522.29 -196.94 -525 -207.98 C -525.21 -208.84 -525.42 -209.69 -525.64 -210.57 C -531.66 -236.13 -532.4 -267.64 -525 -292.98 C -524.79 -293.73 -524.58 -294.48 -524.36 -295.25 C -510.43 -343.98 -510.43 -343.98 -497 -343.98 Z" fill="#3E2163" id="object-1"/><path d="M -323 -37.982 C -320.23 -35.525 -318.74 -32.856 -317 -29.607 C -312.82 -22.308 -307.62 -16.208 -302 -9.982 C -301.41 -9.326 -300.83 -8.67 -300.23 -7.994 C -287 6.039 -269.41 16.177 -252.78 25.548 C -241.17 32.12 -230.16 39.353 -220 48.018 C -219.18 48.702 -218.36 49.387 -217.52 50.092 C -202.75 62.844 -189.36 80.186 -187.45 100.212 C -187.37 101.112 -187.28 102.012 -187.19 102.94 C -187.13 103.625 -187.06 104.311 -187 105.018 C -212.14 105.041 -237.29 105.059 -262.44 105.07 C -274.11 105.075 -285.79 105.082 -297.46 105.093 C -307.63 105.103 -317.81 105.11 -327.98 105.112 C -333.37 105.113 -338.76 105.116 -344.15 105.124 C -349.21 105.13 -354.28 105.132 -359.35 105.131 C -361.21 105.131 -363.08 105.133 -364.94 105.137 C -367.48 105.142 -370.01 105.141 -372.55 105.138 C -373.3 105.141 -374.04 105.144 -374.81 105.147 C -379.88 105.132 -379.88 105.132 -381 104.018 C -381.31 102.026 -381.62 100.033 -381.9 98.036 C -382.95 90.419 -384.32 83.024 -386.5 75.643 C -386.7 74.949 -386.9 74.254 -387.11 73.539 C -388.29 69.686 -389.69 66.334 -392 63.018 C -392.33 63.018 -392.66 63.018 -393 63.018 C -393 74.568 -393 86.118 -393 98.018 C -411.08 84.456 -424.38 67.921 -427.75 44.83 C -428.11 40.135 -428.13 35.412 -428.18 30.705 C -428.2 29.915 -428.21 29.126 -428.22 28.312 C -428.22 27.559 -428.23 26.806 -428.23 26.029 C -428.23 25.016 -428.23 25.016 -428.24 23.981 C -427.95 21.664 -427.13 20.04 -426 18.018 C -425.17 18.041 -425.17 18.041 -424.32 18.065 C -409.85 18.595 -409.85 18.595 -396 15.018 C -394.91 14.627 -393.82 14.237 -392.7 13.834 C -371.65 6.004 -353.14 -6.443 -337 -21.982 C -336.52 -22.435 -336.05 -22.888 -335.56 -23.355 C -328.5 -30.029 -328.5 -30.029 -323 -37.982 Z" fill="#C698E3" id="object-2"/><path d="M -11.188 -283.12 C -6.248 -279.81 -2.508 -275.91 -0.998 -269.98 C 0.072 -262.73 -1.628 -256.86 -5.998 -250.98 C -11.988 -245.41 -19.348 -241.54 -26.358 -237.41 C -47.168 -225.03 -59.288 -209.7 -68.998 -187.98 C -65.218 -190.78 -61.458 -193.59 -57.798 -196.55 C -50.198 -202.68 -42.498 -208.13 -33.998 -212.98 C -32.868 -213.64 -31.748 -214.29 -30.588 -214.97 C -20.208 -220.86 -9.248 -225.06 2.002 -228.98 C 3.092 -229.36 3.092 -229.36 4.202 -229.75 C 26.703 -237.47 57.576 -243.96 80.202 -233.51 C 87.466 -229.56 91.394 -224.86 94.006 -216.98 C 94.896 -210.79 94.78 -205.17 91.006 -199.98 C 85.029 -193.35 78.694 -190.31 69.724 -189.8 C 66.044 -189.79 62.373 -189.88 58.694 -189.98 C 22.792 -190.55 -12.778 -181.09 -39.238 -155.71 C -50.308 -144.77 -59.948 -132.41 -60.498 -116.23 C -60.178 -106.71 -57.388 -98 -54.308 -89.068 C -39.308 -45.575 -41.378 -1.306 -61.538 40.385 C -69.698 56.692 -79.818 70.513 -91.998 84.018 C -92.668 84.767 -93.348 85.516 -94.038 86.287 C -111.31 104.398 -111.31 104.398 -119.08 105.245 C -119.86 105.234 -120.64 105.224 -121.44 105.213 C -122.29 105.207 -123.14 105.2 -124.01 105.194 C -124.89 105.177 -125.78 105.16 -126.68 105.143 C -127.58 105.134 -128.47 105.125 -129.39 105.115 C -131.59 105.092 -133.79 105.059 -136 105.018 C -132.44 102.091 -128.77 99.499 -124.93 96.955 C -118.63 92.665 -113 87.804 -107.53 82.502 C -105.95 80.972 -104.35 79.464 -102.74 77.955 C -77.158 53.533 -63.568 21.405 -57.368 -12.916 C -57.068 -14.559 -56.738 -16.195 -56.398 -17.83 C -53.038 -43.956 -59.668 -67.757 -68.108 -92.199 C -73.458 -107.75 -74.288 -122.98 -66.998 -137.98 C -62.148 -146.96 -56.098 -154.66 -48.998 -161.98 C -48.468 -162.57 -47.938 -163.16 -47.398 -163.76 C -26.138 -186.76 8.432 -199.83 39.227 -201.88 C 42.712 -202.01 46.192 -201.99 49.678 -201.96 C 50.364 -201.95 51.049 -201.94 51.756 -201.94 C 55.22 -201.9 58.681 -201.84 62.144 -201.73 C 69.563 -201.6 74.822 -201.66 81.006 -205.98 C 82.617 -210.17 82.252 -213.1 80.631 -217.17 C 77.803 -221.93 74.242 -223.52 69.006 -224.98 C 64.263 -225.49 59.584 -225.45 54.819 -225.36 C 53.593 -225.36 52.368 -225.35 51.106 -225.35 C 23.699 -225.09 -3.048 -217.07 -26.998 -203.98 C -28.058 -203.41 -29.128 -202.83 -30.228 -202.24 C -50.718 -190.75 -67.678 -174.21 -80.998 -154.98 C -82.998 -155.98 -82.998 -155.98 -83.608 -157.64 C -87.088 -178.72 -79.258 -198.64 -67.998 -215.98 C -65.168 -219.83 -62.178 -223.44 -58.998 -226.98 C -58.378 -227.68 -57.768 -228.37 -57.138 -229.09 C -48.318 -238.51 -36.968 -245.28 -25.768 -251.5 C -20.408 -254.52 -16.448 -257.79 -12.998 -262.98 C -12.648 -266.2 -12.608 -268.25 -14.128 -271.14 C -16.788 -273.76 -18.548 -273.55 -22.248 -273.55 C -41.468 -272.95 -59.468 -262.18 -72.428 -248.48 C -85.928 -232.88 -94.648 -215.81 -100 -195.98 C -100.19 -195.29 -100.39 -194.59 -100.59 -193.88 C -106.12 -174.02 -106.08 -151.95 -101 -131.98 C -100.67 -130.67 -100.67 -130.67 -100.34 -129.33 C -96.778 -115.05 -92.108 -101.27 -86.898 -87.522 C -72.518 -49.516 -71.548 -10.314 -88.018 27.316 C -103.12 60.097 -129.13 81.557 -161 97.018 C -163.29 98.137 -165.58 99.263 -167.87 100.393 C -169.29 101.085 -169.29 101.085 -170.74 101.791 C -173.11 102.94 -173.11 102.94 -175 105.018 C -177.82 105.213 -177.82 105.213 -181.12 105.143 C -182.22 105.125 -183.31 105.107 -184.44 105.088 C -185.71 105.053 -185.71 105.053 -187 105.018 C -187.19 103.976 -187.39 102.935 -187.59 101.862 C -193.28 73.775 -210.8 53.929 -234 38.018 C -241.22 33.398 -248.62 29.083 -256.02 24.758 C -278.8 11.438 -301.06 -3.502 -315.75 -25.982 C -316.11 -26.54 -316.48 -27.097 -316.85 -27.671 C -322.6 -36.77 -324.87 -45.269 -326.15 -55.898 C -327.1 -62.158 -328.75 -65.707 -333.28 -70.177 C -340.47 -77.742 -344 -91.754 -344 -101.98 C -343.34 -101.98 -342.68 -101.98 -342 -101.98 C -340.84 -100.52 -340.84 -100.52 -339.56 -98.467 C -338.85 -97.34 -338.85 -97.34 -338.11 -96.191 C -337.34 -94.974 -337.34 -94.974 -336.56 -93.732 C -325.29 -76.411 -311.27 -63.006 -292 -54.982 C -292.17 -55.753 -292.34 -56.524 -292.52 -57.318 C -295.01 -68.539 -297.5 -79.761 -300 -90.982 C -296.09 -90.348 -292.83 -89.159 -289.23 -87.541 C -288.1 -87.043 -286.98 -86.545 -285.82 -86.032 C -284.02 -85.234 -284.02 -85.234 -282.18 -84.42 C -272.79 -80.301 -263.37 -76.517 -253.62 -73.295 C -252.64 -72.969 -251.65 -72.642 -250.64 -72.306 C -246.11 -70.849 -241.73 -69.576 -237 -68.982 C -236.1 -66.46 -235.8 -65.409 -236.93 -62.92 C -237.28 -62.28 -237.64 -61.641 -238 -60.982 C -238 -59.992 -238 -59.002 -238 -57.982 C -247.62 -58.355 -255.99 -61.403 -265 -64.545 C -267.26 -65.326 -269.53 -66.104 -271.79 -66.878 C -273.2 -67.358 -274.6 -67.842 -275.99 -68.331 C -279.41 -69.567 -279.41 -69.567 -283 -69.982 C -282.67 -68.658 -282.67 -68.658 -282.34 -67.306 C -278.6 -51.19 -278.6 -51.19 -280 -44.982 C -282.78 -42.185 -283.73 -41.987 -287.81 -41.92 C -296.9 -43.263 -305.9 -47.829 -314 -51.982 C -310.73 -37.901 -302.47 -27.474 -293 -16.982 C -292.4 -16.314 -291.8 -15.647 -291.19 -14.959 C -278.58 -1.591 -261.59 7.288 -245.99 16.608 C -230.59 25.832 -217.01 35.655 -204 48.018 C -203.03 48.888 -203.03 48.888 -202.04 49.776 C -193.73 57.511 -187.52 67.448 -182.43 77.518 C -182.1 78.176 -181.76 78.834 -181.42 79.512 C -179.57 83.332 -178.47 86.799 -178 91.018 C -158.08 83.354 -141.67 74.801 -126 60.018 C -125.32 59.405 -124.64 58.793 -123.94 58.162 C -108.4 43.556 -97.568 22.403 -91.998 2.018 C -91.688 0.916 -91.388 -0.187 -91.068 -1.322 C -81.978 -36.041 -91.718 -67.448 -103.64 -99.98 C -107.39 -110.23 -110.84 -120.26 -113 -130.98 C -113.22 -132.03 -113.22 -132.03 -113.44 -133.09 C -120.82 -168.94 -114.94 -208.18 -95.158 -239.25 C -86.308 -252.44 -75.778 -262.68 -62.998 -271.98 C -62.228 -272.55 -61.458 -273.12 -60.668 -273.71 C -48.418 -281.93 -25.308 -290.85 -11.188 -283.12 Z" fill="#3C2062" id="object-3"/><path d="M -15.998 -273.98 C -13.328 -271.35 -12.148 -269.79 -11.428 -266.11 C -12.298 -261.3 -14.898 -257.56 -18.768 -254.64 C -20.788 -253.41 -22.848 -252.28 -24.928 -251.17 C -50.948 -236.58 -72.308 -216.31 -80.998 -186.98 C -83.218 -177.38 -84.928 -165.58 -81.998 -155.98 C -78.288 -160.13 -74.708 -164.33 -71.308 -168.73 C -46.728 -199.55 -6.748 -220.05 32.146 -225.27 C 39.615 -226.08 47.06 -226.24 54.569 -226.29 C 55.831 -226.32 57.094 -226.35 58.395 -226.38 C 65.666 -226.43 71.813 -226.1 78.006 -221.98 C 81.992 -217.6 83.098 -213.78 83.006 -207.98 C 80.187 -204.17 77.463 -202.41 73.006 -200.98 C 69.942 -200.8 69.942 -200.8 66.51 -200.89 C 65.24 -200.91 63.97 -200.94 62.662 -200.96 C 61.994 -200.97 61.326 -200.99 60.638 -201 C 33.646 -201.53 8.142 -197.55 -15.998 -184.98 C -17.448 -184.26 -17.448 -184.26 -18.938 -183.52 C -40.758 -172.28 -60.608 -153.21 -69.558 -130.04 C -74.558 -113.13 -68.738 -96.649 -63.378 -80.658 C -54.978 -55.468 -51.698 -30.113 -57.998 -3.982 C -58.168 -3.222 -58.348 -2.463 -58.528 -1.68 C -65.338 27.195 -77.698 53.004 -98.478 74.451 C -99.53 75.535 -100.57 76.625 -101.6 77.721 C -111.39 88.072 -121.76 96.675 -134 104.018 C -128.72 104.348 -123.44 104.678 -118 105.018 C -118 105.348 -118 105.678 -118 106.018 C -137 106.235 -156 105.584 -175 105.018 C -171.94 101.753 -169.4 99.409 -165.26 97.694 C -164.36 97.31 -163.47 96.927 -162.55 96.532 C -161.6 96.136 -160.66 95.739 -159.68 95.33 C -126.4 80.704 -99.47 54.783 -86.018 20.536 C -71.658 -19.525 -75.938 -56.803 -90.818 -95.783 C -103.15 -128.18 -110.69 -161.8 -101 -195.98 C -100.72 -197.01 -100.72 -197.01 -100.44 -198.06 C -93.128 -225.4 -77.458 -250.53 -52.698 -265.02 C -48.588 -267.34 -44.388 -269.27 -39.998 -270.98 C -38.798 -271.46 -38.798 -271.46 -37.588 -271.95 C -30.758 -274.36 -23.138 -275.35 -15.998 -273.98 Z" fill="#C798E4" id="object-4"/><path d="M -342 -90.982 C -341.67 -90.982 -341.34 -90.982 -341 -90.982 C -340.83 -90.281 -340.66 -89.58 -340.48 -88.857 C -338.44 -80.868 -336.43 -74.325 -330.5 -68.447 C -326.23 -63.639 -325.45 -58.972 -324.62 -52.732 C -324.32 -50.789 -324.02 -48.847 -323.72 -46.904 C -323.6 -46.054 -323.49 -45.204 -323.36 -44.329 C -323.07 -41.997 -323.07 -41.997 -322.29 -39.91 C -322 -37.982 -322 -37.982 -322.96 -36.11 C -342.68 -11.541 -373.83 13.761 -406 19.018 C -409.48 19.255 -412.94 19.254 -416.43 19.205 C -417.34 19.205 -418.25 19.204 -419.19 19.203 C -425.85 19.159 -425.85 19.159 -427 18.018 C -426.94 16.405 -426.81 14.795 -426.66 13.19 C -426.14 7.64 -425.68 2.09 -425.24 -3.467 C -425.11 -5.159 -424.98 -6.852 -424.84 -8.545 C -424.71 -10.274 -424.57 -12.003 -424.43 -13.732 C -424.29 -15.508 -424.15 -17.284 -424.01 -19.06 C -423.67 -23.368 -423.34 -27.675 -423 -31.982 C -422.44 -32.138 -421.88 -32.293 -421.3 -32.454 C -418.72 -33.181 -416.14 -33.925 -413.56 -34.67 C -412.68 -34.914 -411.8 -35.158 -410.9 -35.41 C -405.46 -36.996 -400.75 -38.993 -395.89 -41.907 C -394 -42.982 -394 -42.982 -391 -43.982 C -391 -44.642 -391 -45.302 -391 -45.982 C -392.65 -46.312 -394.3 -46.642 -396 -46.982 C -393.81 -49.173 -391.57 -50.227 -388.79 -51.544 C -372.09 -59.471 -353.78 -71.575 -343 -86.982 C -342.28 -89.128 -342.28 -89.128 -342 -90.982 Z" fill="#A16CCF" id="object-5"/><path d="M -498 -326.98 C -495.71 -324.7 -495.37 -322.91 -494.61 -319.83 C -489.41 -299.29 -477.02 -282.16 -465.44 -264.76 C -460.15 -256.81 -454.91 -248.87 -450.12 -240.61 C -449.69 -239.88 -449.27 -239.15 -448.83 -238.4 C -446.88 -234.96 -445.47 -231.92 -445 -227.98 C -446.16 -227.5 -447.32 -227.01 -448.51 -226.51 C -471.43 -216.76 -487.72 -202.44 -502 -181.98 C -505.35 -186.15 -506.77 -190.39 -508.43 -195.42 C -508.74 -196.34 -509.05 -197.26 -509.36 -198.21 C -512.48 -207.95 -514.43 -217.88 -516 -227.98 C -516.17 -229.08 -516.35 -230.18 -516.53 -231.32 C -517.25 -236.99 -517.18 -242.65 -517.18 -248.36 C -517.18 -250.45 -517.2 -252.54 -517.22 -254.63 C -517.33 -280.96 -509.24 -303.53 -498 -326.98 Z" fill="#C799E3" id="object-6"/><path d="M -503 -71.982 C -501.06 -70.12 -499.21 -68.246 -497.52 -66.146 C -493.03 -60.603 -488.31 -57.243 -482 -53.982 C -481.14 -53.54 -480.28 -53.098 -479.4 -52.642 C -454.74 -40.709 -425.26 -40.38 -399 -46.982 C -397.41 -47.048 -395.83 -47.068 -394.25 -47.045 C -393.45 -47.036 -392.65 -47.027 -391.82 -47.017 C -391.22 -47.006 -390.62 -46.994 -390 -46.982 C -391.43 -42.677 -394 -41.751 -397.84 -39.541 C -405.77 -35.627 -414.21 -33.031 -423 -31.982 C -422.97 -31.334 -422.95 -30.685 -422.93 -30.017 C -422.65 -15.182 -424.06 -0.226 -426.12 14.455 C -429.22 37.957 -425.76 60.22 -411.93 79.967 C -406.51 86.923 -401.04 91.252 -394 97.018 C -394 85.798 -394 74.578 -394 63.018 C -393.01 63.018 -392.02 63.018 -391 63.018 C -388 68.623 -385.93 73.93 -384.37 80.08 C -384.17 80.825 -383.96 81.569 -383.75 82.336 C -381.78 89.922 -381.05 97.077 -380 105.018 C -395.18 105.018 -410.36 105.018 -426 105.018 C -428.06 93.955 -428.06 93.955 -428.77 90.135 C -429.96 83.895 -431.28 77.732 -432.89 71.584 C -441.71 37.359 -437.55 3.803 -434 -30.982 C -434.74 -30.958 -435.49 -30.933 -436.26 -30.908 C -443.25 -30.776 -449.48 -31.369 -456.25 -33.107 C -457.15 -33.332 -458.05 -33.556 -458.97 -33.787 C -476.63 -38.338 -492.88 -44.928 -506 -57.982 C -505.67 -58.642 -505.34 -59.302 -505 -59.982 C -504.34 -59.652 -503.68 -59.322 -503 -58.982 C -502.67 -59.972 -502.34 -60.962 -502 -61.982 C -501.34 -61.982 -500.68 -61.982 -500 -61.982 C -500.61 -65.54 -501.57 -68.665 -503 -71.982 Z" fill="#3D2062" id="object-7"/><path d="M -367 -149.98 C -365.91 -133.12 -370.27 -117.79 -380.68 -104.23 C -388.39 -95.841 -400.63 -89.752 -412 -88.982 C -412.91 -88.919 -413.82 -88.856 -414.75 -88.791 C -424.73 -88.411 -436.15 -89.988 -445 -94.982 C -444.76 -106.59 -437.49 -117.54 -430 -125.98 C -429.49 -126.58 -428.98 -127.18 -428.46 -127.8 C -412.81 -144.99 -389.14 -150.26 -367 -149.98 Z" fill="#402265" id="object-8"/><path d="M -217 -240.98 C -216.55 -232.75 -218.06 -225.02 -219.66 -216.98 C -220.08 -214.72 -220.08 -214.72 -220.23 -211.37 C -221.27 -206.78 -223.47 -204.62 -226.75 -201.36 C -227.35 -200.73 -227.96 -200.11 -228.59 -199.46 C -229.95 -198.07 -231.32 -196.68 -232.69 -195.3 C -235.21 -192.76 -237.71 -190.21 -240.21 -187.65 C -242.03 -185.8 -243.86 -183.96 -245.68 -182.11 C -246.54 -181.24 -247.39 -180.37 -248.27 -179.48 C -253.42 -174.32 -258.76 -169.62 -264.46 -165.08 C -266.71 -163.22 -268.73 -161.29 -270.76 -159.2 C -274.44 -155.61 -277.93 -152.32 -283 -150.98 C -291.14 -151.69 -298.75 -155.38 -306 -158.98 C -306 -162.44 -305.6 -162.8 -303.4 -165.28 C -302.57 -166.22 -302.57 -166.22 -301.72 -167.19 C -301.13 -167.84 -300.54 -168.5 -299.93 -169.17 C -299.37 -169.81 -298.81 -170.44 -298.23 -171.09 C -297.08 -172.4 -295.91 -173.71 -294.75 -175 C -293.61 -176.29 -292.48 -177.58 -291.37 -178.88 C -286.37 -184.71 -281 -190.13 -275.56 -195.54 C -274.66 -196.45 -273.75 -197.36 -272.82 -198.29 C -267.71 -203.4 -262.49 -208.29 -257 -212.98 C -256 -213.87 -255 -214.76 -254 -215.65 C -245.23 -223.31 -235.81 -229.73 -226 -235.98 C -225.24 -236.47 -224.49 -236.95 -223.71 -237.44 C -218.12 -240.98 -218.12 -240.98 -217 -240.98 Z" fill="#5F489B" id="object-9"/><path d="M -446.74 -177.56 C -441.64 -173.3 -438.43 -169.25 -437.53 -162.47 C -437.44 -151.96 -439.14 -144.95 -446.25 -137.11 C -451 -132.73 -456.17 -130.49 -462.5 -129.36 C -470.05 -130.71 -475.65 -135.88 -480 -141.98 C -482.03 -148.08 -482.12 -155.54 -480.12 -161.66 C -476 -169.48 -469.87 -175.12 -462 -178.98 C -456.73 -180.62 -451.49 -180.55 -446.74 -177.56 Z" fill="#E4121E" id="object-10"/><path d="M -446.74 -177.56 C -441.64 -173.3 -438.43 -169.25 -437.53 -162.47 C -437.44 -151.96 -439.14 -144.95 -446.25 -137.11 C -451 -132.73 -456.17 -130.49 -462.5 -129.36 C -470.05 -130.71 -475.65 -135.88 -480 -141.98 C -482.03 -148.08 -482.12 -155.54 -480.12 -161.66 C -476 -169.48 -469.87 -175.12 -462 -178.98 C -456.73 -180.62 -451.49 -180.55 -446.74 -177.56 Z M -472.39 -166.34 C -475.81 -161.35 -475.85 -155.83 -475 -149.98 C -473.35 -145.19 -470.4 -141.49 -466 -138.98 C -461.23 -138.38 -459.08 -138.43 -454.81 -140.61 C -449.76 -144.87 -445.67 -149.25 -444.71 -156.01 C -444.3 -162.24 -446.13 -166.17 -450 -170.98 C -452.79 -174.12 -454.99 -174.82 -459.18 -175.48 C -465.3 -174.68 -468.51 -170.91 -472.39 -166.34 Z" fill="#3E2368" id="object-11"/><path d="M -409 -131.98 C -406.42 -128.12 -406.41 -126.59 -407 -121.98 C -409.6 -115.84 -412.97 -110.98 -418.9 -107.75 C -422.48 -106.44 -425.21 -106.53 -429 -106.98 C -431 -108.98 -431 -108.98 -431.5 -111.55 C -430.27 -119.97 -423.52 -126.05 -417 -130.98 C -414.21 -132.38 -412.08 -132.24 -409 -131.98 Z" fill="#F9F8FA" id="object-12"/><path d="M -304 76.018 C -303.75 82.605 -304.68 88.574 -306 95.018 C -306.19 95.983 -306.38 96.949 -306.57 97.944 C -307.04 100.303 -307.52 102.661 -308 105.018 C -311.96 105.018 -315.92 105.018 -320 105.018 C -318.98 97.541 -313.83 76.018 -304 76.018 Z" fill="#391D5E" id="object-13"/><path d="M -467 -171.98 C -462.44 -171.43 -462.44 -171.43 -461 -169.98 C -460.4 -164.1 -461.69 -159.79 -465 -154.98 C -468.22 -152.83 -469.26 -152.6 -473 -152.98 C -475 -154.98 -475 -154.98 -475.5 -157.54 C -474.66 -163.28 -471.05 -167.93 -467 -171.98 Z" fill="#FA7695" id="object-14"/><path d="M -508 -134.98 C -503.47 -131.66 -500.16 -128.69 -499 -122.98 C -498.77 -118.64 -498.82 -114.33 -499 -109.98 C -502.1 -111.3 -503.59 -112.38 -505.18 -115.36 C -505.51 -115.94 -505.83 -116.53 -506.16 -117.13 C -507.99 -121.2 -508.11 -124.79 -508.06 -129.23 C -508.05 -130.85 -508.05 -130.85 -508.03 -132.5 C -508.02 -133.32 -508.01 -134.14 -508 -134.98 Z" fill="#F9F8FA" id="object-15"/><path d="M -420 -134.98 C -419.34 -134.65 -418.68 -134.32 -418 -133.98 C -418 -133.32 -418 -132.66 -418 -131.98 C -417.13 -132.51 -417.13 -132.51 -416.25 -133.04 C -413.6 -134.15 -412.66 -133.78 -410 -132.98 C -410.62 -132.73 -411.25 -132.47 -411.9 -132.21 C -419.89 -128.63 -426.55 -123.26 -430 -114.98 C -430.33 -110.88 -430.32 -109.47 -428 -105.98 C -429.93 -106.67 -429.93 -106.67 -432 -107.98 C -433.26 -111.58 -432.94 -114.33 -432 -117.98 C -432.99 -117.98 -433.98 -117.98 -435 -117.98 C -433.58 -122.44 -431.39 -124.94 -428.06 -128.17 C -427.18 -129.03 -426.31 -129.89 -425.41 -130.78 C -423 -132.98 -423 -132.98 -420 -134.98 Z" fill="#2D1455" id="object-16"/><path d="M -494 -74.982 C -489.05 -74.982 -484.1 -74.982 -479 -74.982 C -478.67 -73.332 -478.34 -71.682 -478 -69.982 C -481.37 -67.265 -483.22 -65.996 -487.62 -65.92 C -491.61 -67.174 -492.94 -68.381 -495 -71.982 C -494.67 -72.972 -494.34 -73.962 -494 -74.982 Z" fill="#371B5B" id="object-17"/><path d="M -390 -46.982 C -391.14 -43.562 -391.92 -42.74 -395 -40.982 C -397.06 -41.357 -397.06 -41.357 -399 -41.982 C -399.99 -41.652 -400.98 -41.322 -402 -40.982 C -402 -41.642 -402 -42.302 -402 -42.982 C -405.3 -42.982 -408.6 -42.982 -412 -42.982 C -405.52 -47.298 -397.56 -47.226 -390 -46.982 Z" fill="#371A5C" id="object-18"/><path d="M -498 -326.98 C -495.4 -324.39 -495.3 -322.58 -495 -318.98 C -497 -316.98 -497 -316.98 -499.5 -316.23 C -502.32 -315.16 -502.32 -315.16 -503.31 -311.86 C -503.53 -310.91 -503.76 -309.96 -504 -308.98 C -505.42 -313.26 -503.45 -315.85 -501.56 -319.67 C -501.22 -320.37 -500.88 -321.07 -500.53 -321.8 C -499.7 -323.53 -498.85 -325.26 -498 -326.98 Z" fill="#CEA2E7" id="object-19"/><path d="M -393 62.018 C -391.68 63.338 -390.36 64.658 -389 66.018 C -389.33 67.008 -389.66 67.998 -390 69.018 C -390.33 68.688 -390.66 68.358 -391 68.018 C -391.05 68.716 -391.09 69.415 -391.14 70.135 C -391.22 71.045 -391.29 71.955 -391.37 72.893 C -391.48 74.25 -391.48 74.25 -391.58 75.635 C -392 78.018 -392 78.018 -394 80.018 C -394.02 77.205 -394.04 74.393 -394.06 71.58 C -394.07 70.778 -394.08 69.975 -394.08 69.149 C -394.09 67.105 -394.05 65.061 -394 63.018 C -393.67 62.688 -393.34 62.358 -393 62.018 Z" fill="#2C1153" id="object-20"/><path d="M -70.998 -168.98 C -70.668 -167.66 -70.338 -166.34 -69.998 -164.98 C -70.658 -164.32 -71.318 -163.66 -71.998 -162.98 C -72.258 -162.36 -72.528 -161.75 -72.808 -161.11 C -74.358 -158.32 -76.448 -156.86 -78.998 -154.98 C -79.658 -155.64 -80.318 -156.3 -80.998 -156.98 C -77.698 -160.94 -74.398 -164.9 -70.998 -168.98 Z" fill="#D1A2E9" id="object-21"/><path d="M -414 -136.98 C -413.67 -136.32 -413.34 -135.66 -413 -134.98 C -412.34 -134.65 -411.68 -134.32 -411 -133.98 C -413.97 -132.66 -416.94 -131.34 -420 -129.98 C -419 -133.98 -419 -133.98 -416.43 -135.73 C -415.23 -136.35 -415.23 -136.35 -414 -136.98 Z" fill="#48256B" id="object-22"/><path d="M -423 -127.98 C -422.34 -127.65 -421.68 -127.32 -421 -126.98 C -423.31 -124.34 -425.62 -121.7 -428 -118.98 C -428 -121.69 -427.96 -123.49 -427 -125.98 C -425.06 -127.3 -425.06 -127.3 -423 -127.98 Z" fill="#220F4C" id="object-23"/><path d="M -393 62.018 C -391.68 63.338 -390.36 64.658 -389 66.018 C -389.33 67.008 -389.66 67.998 -390 69.018 C -390.66 68.028 -391.32 67.038 -392 66.018 C -392.99 66.513 -392.99 66.513 -394 67.018 C -393.67 65.368 -393.34 63.718 -393 62.018 Z" fill="#381F5D" id="object-24"/><path d="M -57.998 -45.982 C -57.008 -45.982 -56.018 -45.982 -54.998 -45.982 C -54.998 -43.672 -54.998 -41.362 -54.998 -38.982 C -55.988 -38.982 -56.978 -38.982 -57.998 -38.982 C -57.998 -41.292 -57.998 -43.602 -57.998 -45.982 Z" fill="#BE90DE" id="object-25"/></g></svg>